<?xml version="1.0" encoding="UTF-8"?>
<svg xmlns="http://www.w3.org/2000/svg" version="1.1" viewBox="0 0 612 612">
  <defs>
    <style>
      .cls-1 {
        fill: #baff98;
      }

      .cls-2 {
        fill: #67b83f;
      }

      .cls-3 {
        fill: #68b93f;
      }

      .cls-4 {
        fill: #67b93f;
      }

      .cls-5 {
        fill: #91ff5c;
      }

      .cls-6 {
        fill: #89ff50;
      }

      .cls-7 {
        fill: #69ba40;
      }
    </style>
  </defs>
  <!-- Generator: Adobe Illustrator 28.6.0, SVG Export Plug-In . SVG Version: 1.2.0 Build 709)  -->
  <g>
    <g id="Layer_1">
      <g>
        <path class="cls-6" d="M524.2,101.1c2,3.2,3.8,6.6,5.9,9.7,2.1,3.2,4.9,5.8,6.9,9.2,1.2,2.1,3.6,3.4,5.5,5.1,2.7,2.4,5.3,4.8,8,7.1.4.3,1,.4,1.7.5.2,0,0,0,0,.1,1.6,2.4,3.1,4.8,4.9,6.8,6,6.6,7.8,14.9,10,23,1.6,5.6,2.7,11.4,4.2,17,.2.6,1.2.9,1.8,1.4,0,0,0,0,0,.2,0,.9-.3,1.7,0,2.2,2.4,4.6,5.1,9.1,7.2,13.8,2.3,5.1,4.1,10.5,6,15.8,1.5,4.2,2.9,8.4,4.2,12.6,1.3,4,2.4,8.1,3.6,12.3.4,1.1.8,2,1.3,2.9,0,0,0,0,0,.2.9,1.9,1.9,3.5,2.9,5.3,0,.1,0,.4,0,.5.2.3.3.5.6.8,1.3,2.8,2.7,5.3,3.5,8,1.7,5.4,3.2,10.9,4.6,16.4.7,3,1.3,6.2,1.2,9.3-.2,5.4-.8,10.8-1.6,16.1-1.2,7.3-2.1,14.7-4.4,21.6-1.2,3.7-.8,7.2-1.3,10.7-.7,5.1.1,10.4-.4,15.6-.6,6.3-2.2,12.3-4.9,18.2-2.4,5.1-4.1,10.4-6.1,15.6-.7,2-1.5,3.9-2,6-.5,2.1-.5,4.2-.8,6.3-.5,3.3-.9,6.6-1.6,9.9-.8,4-1.9,8-2.8,12-.7,2.9-1.3,5.9-2,8.8,0,0,0,0-.2-.2-.7.3-1.4.7-1.6,1.3-1.4,3.6-2.6,7.2-3.9,10.8-.7,1.8-1.5,3.5-2.2,5.2-1.8,4.7-3.9,9.3-5.3,14.2-1.4,5.2-1.6,10.8-3.2,15.9-2.4,7.6-2.7,15.9-7.6,22.7-.2.2-.4.5-.4.8.2,2.7-1.2,4.5-3.4,5.8-2.8,1.7-5.4,3.7-8.4,5.1-6.8,3.1-11.9,7.7-15.1,14.5-.4,1-.6,2.1-.9,3.1,0,0,0,0-.1-.2-2.3,1.7-4.9,3.3-4.6,6.7,0,0,0,0-.1-.2-1,1.2-1.9,2.5-2.8,3.8,0,0,0,0-.2,0-.6.1-1,.2-1.2.5-5.1,5.9-10.7,10.8-17.8,14.5-5.7,3-11.7,4.6-17.6,6.8-4.1,1.5-8.4,2.4-12.5,3.8-5.8,2.1-11.5,4.4-17.2,6.7-6,2.4-11.8,5.1-17.8,7.5-3.5,1.4-7.1,2.8-10.8,3.7-4.9,1.2-9.4,3.2-13.9,5.4-3.9,2-8,3.9-12.2,5.1-5,1.4-10.1,2.1-15.2,3.1-6.3,1.3-12.5,2.6-18.8,3.8-4.7.9-9.4,1.4-14.1,2.3-3.7.7-7.3,1.7-11,2.5-6.7,1.4-13.4,2.7-20.1,4-1.5.3-3.2,0-4.7.3-3,.5-5.9,1.5-8.9,1.8-3.4.4-6.8.4-10.3.4-4.1,0-8.2.2-12.2-.3-3.4-.4-6.7-2.3-10.1-2.6-5-.4-9.4-2.9-14.6-2.8-5.5,0-11.1-1.9-16.8-.9-3.9.7-8.2.6-11.7,2.2-8,3.8-16,3.9-24.1,1.9-4.1-1-8.1-3-12.1-4.6-3.7-1.5-7.4-2.7-10.9-4.5-4.5-2.4-8.7-5.7-13.3-8-4-2-8.3-3.3-12.5-4.9-2.1-.8-4.1-1.7-6.1-2.6-1.1-.5-2.3-.9-3.5-1.1-1-.2-2.1-.3-3.1-.5,0,0,0,0,.2-.1-2.1-1.9-4.4-3.6-6.7-5.4-.9-.9-1.6-1.6-2.4-2.5-1.4-2.6-2.8-5-4.2-7.4-2-3.6-4-7.3-6.1-10.9,0-.1-.7,0-1.1,0,0,0,0,0,0-.2-.3-1.5-.3-2.8-.9-3.8-2.4-4.3-4.9-8.6-7.5-12.9-1.1-1.8-2.3-3.5-3.6-5.4-1.3-1.9-2.5-3.6-3.7-5.5-1-1.8-1.9-3.6-3-5.1-.5-.6-1.6-.8-2.3-1.2,0,0,0,0,.2-.2-.5-.7-1.3-1.1-2-1.6,0,0,0,0,.2-.1-.7-1.1-1.7-1.9-2.6-2.8,0,0,0,0,.2-.1-1.5-2.7-3.6-4.4-6.8-4.6,0,0,0,0,.2-.2-.3-.5-.9-.7-1.4-1,0,0,0,0,0,0-.2-.7-.2-1.7-.7-2.2-3.8-3.8-8.1-6.7-13.4-8.5-6.1-2.1-12.4-3.7-17.8-7.6-3.5-2.5-7.7-4.2-11.8-6.2-.2,0,0,0,0-.1-1.8-1.7-3.6-3.2-5.5-4.6-1-.8-2.3-1.2-3.4-1.8,0,0,0,0,0-.2-.6-.9-1.3-1.5-1.9-2.2,0,0,0,0,0-.2-1.1-1.5-1.3-4-4-3.5-.2-.2-.4-.4-.5-.6-1.1-2.3-2-4.6-3.2-6.8-1.8-3.3-4-6.4-5.6-9.8-3.3-6.9-7.1-13.7-7.6-21.7,0-.7-.4-1.3-.3-2.2,1-3.5,1.7-6.7-.2-9.7-.2-6.9-.4-13.8-.8-20.7,0-1.2-.6-2.5-1.3-3.5-3.9-6.2-6.5-12.8-7.1-20.2-.2-3-1.1-6-1.1-9.1,0-3-.9-6.3,1.6-9,.2-.2.1-.6.1-.9.8-7.2,1.6-14.3,2.4-21.5.2-1.8,0-3.6-.2-5.4-.9-8.2-1.9-16.3-2.7-24.5-.7-7-1.4-14-1.8-21.1-.5-8.9.2-17.7,2.4-26.3,1-3.9,2.3-7.7,4.5-11.4,2.1-3.6,2.8-8.2,3.8-12.4,1.1-4.8,1.7-9.7,2.8-14.6.3-1.5,1.3-2.9,2.2-4.7.3-.4.4-.6.4-.8,0,0,0-.3.2-.5.3-.3.4-.5.4-.7,0,0,0,0,.2,0,1.6-.6,2.9-1.2,4.3-1.8.8-.3,1.7-.6,2.3-1.2,1.6-1.6,3.1-3.3,4.4-5.2,5.8-8.3,11.6-16.6,17.1-25.1,1.9-3,3.5-6.4,4.3-9.9.6-2.3,1.2-3.1,3.3-2.4.5-1.4.9-2.6,1.3-3.8-4-.8-4.5-1.5-3.7-5.8.3-.8.4-1.5.7-2.2.5-.4.7-.8.9-1.3,0,0,0,0,.1,0,.3-.4.4-.7.7-1.2.3-.7.1-1.4.4-1.8,2.3-3.6,4.6-7.2,6.9-10.9.4-.6.2-1.5.2-2.3,0,0,0,0,.2,0,.9-1.2,1.6-2.4,2.2-3.6,0,0,0,0,.1,0,.8-.6,1.5-1.2,2.4-1.8.7-1.2,1.2-2.4,1.7-3.6,0,0,0,0,.1,0,.3-.2.4-.4.5-.6,0,0,0,0,.2,0,.9-1,1.6-2,2.2-3.2-.1-.4-.3-.8-.2-.9,3.3-4.5,6.6-9,9.8-13.5.6-.8.4-2.2.6-3.3,0,0,0,0,.2,0,1.1-.8,2.1-1.5,2.8-2.4,1.9-2.3,3.6-4.8,5.4-7.1,0,0,0,0,.2,0,1.1-.8,1.9-1.7,2.8-2.5,0,0,0,0,.2,0,6.2-3.2,12.2-6.4,18.2-9.8.8-.5,1.3-1.4,2-2.2,0,0,0,0,.1.2,4.1-1.7,4.6-2.3,4.7-4.8.3-.3.6-.5,1-.5.8-.4,1.3-1,1.9-1.5,0,0,0,0,.2,0,.9-.8,1.6-1.6,2.2-2.4,0,0,0,0,.1,0,.3-.4.4-.8.5-1.2,0,0,0,0,.2,0,2-1.2,3.8-2.3,5.5-3.7.7-.5,1-1.6,1.5-2.3,0,0,0,0,0,0,1.2-.3,2.6-.4,3.7-1,5.6-2.9,11.1-6.1,16.8-8.9,3.2-1.5,6.7-2.2,10.1-3.4,3.7-1.3,7.3-3.2,11.1-4,7-1.3,12.1-6.1,18.1-9.2.5-.3.8-1,1-1.7-.2-.2-.3-.2,0,0,3.8-1.8,7.5-3.8,11.2-5.9.4-.2.4-1,.6-1.5,0,0,0,0,.2,0,2.5-1.2,4.7-2.4,7-3.6,0,0,0,0,.2,0,4.4-2,8.5-4.1,12.7-5.8,3-1.2,6.4-1.4,9.2-2.9,6.6-3.5,13.9-4.1,20.9-5.5,3.7-.7,7.5-1.8,11.6-1,3.2.6,6.7-.7,10.1-.7,3.8,0,7.6.3,11.5.4,2.5,0,5,0,7.5,0,1.8,0,3.6.3,5.4.6,3.4.6,6.9,1.1,10.2,2.1,7,2.3,13.6,6.3,21.4,5.6,2.2-.2,4.4.1,6.6,0,1.2,0,2.5-1.3,3.5-1,4.1,1,7.7-1.7,11.9-1.1,5.9.8,12.1,0,18.1.6,8.8,1.1,17.5,2.8,26.2,4.6,2.8.6,5.6,1.8,8.3,2.8,2.3.9,4.4,2.1,6.6,3.1,1.6.7,3.3,1.1,4.9,1.8,5.1,2.3,10.2,4.8,15.3,7.1,1.5.7,3.8.7,4.7,1.9,2,2.5,4.8,2,7.1,2.9,0,0,0,0,0,.2,1,.7,2,1.2,3,1.6,0,0,0,0,0,.2,1.4.9,2.8,1.6,4.2,2.3,0,0,0,0-.2.1,1.4,1.2,2.9,2.3,4.4,3.4,0,0,0,0,0,.2,1.3,2.6,3.1,4.4,6,4.7,0,0,0,0,0,0,.3,3,3.4,3,4.9,4.8.3.3.9.4,1.5.4.2-.2.2-.2,0,0,2.8,2.9,5.7,5.7,8.8,8.5.2.2.8,0,1.1,0,0,0,0,0,0,.2,1,1.9,1.8,3.9,4.2,4,0,0,0,0,0,.2,1.9,2.8,3.8,5.4,5.9,7.8,1.1,1.3,2.5,2.3,3.7,3.4,0,0,0,0,0,.2.2,1,.2,1.9.6,2.4.9,1,.8,3.3,3,2.8,0,0,0,0,0,.2,0,.7,0,1.5.3,1.6,2.9,1.1,5.6,3.1,9,2.5.6-.1,1.2.4,1.8.6,2.5.8,4.9,1.5,7.4,2.3,0,0,0,0-.2.1.3.6.8,1.1,1.5,1.7,1.9,1.5,3.5,2.9,5.2,4.2M314.3,458.6c2.3-4.7,4.7-9.3,7-14,2.8-5.8,3.4-12.1,3-18.2-.6-8.9-2.2-17.6-3.3-26.5-1.3-10.2-3.6-20.3-7.5-29.8-2.9-7-6.1-14-9.5-20.8-3.4-6.8-7-13.5-11-19.9-2.7-4.3-6.1-8.3-9.5-12.1-4.4-4.9-10.1-7.7-16.9-6.9-9,1.1-16.7,5-23.8,10.6-8.7,6.8-17.2,13.7-26.1,20.2-7.4,5.4-15.5,9.7-22.1,16.4-11.4,11.5-22.8,22.9-30.4,37.3-2.7,5.1-4.8,10.7-6.2,16.3-1.5,6.1-1.9,12.5-2.9,18.7-.7,4.3-.3,8.7,2.4,11.9,4.6,5.3,9.8,10.2,14.9,15.1,4.7,4.6,9.6,8.9,10.8,15.9.8,4.9,1.5,9.8,2.5,14.6,2,9,5.4,17.4,9.7,25.5,3.2,6.1,5.8,12.5,11.7,16.9,9.5,7.1,19.5,8.3,29.5,3,6.5-3.4,12.8-7.4,18.8-11.6,7.3-5.1,14.3-10.6,21.2-16.3,4.8-4,9.6-8.2,13.5-13,8.4-10.7,16.1-21.9,24.3-33.2M545.2,337.3c-2.9-4.6-5.3-9.5-8.7-13.7-3.6-4.4-7.7-8.6-12.3-12-9.2-6.8-19.9-4.6-29.8.7-7.7,4.1-15.5,8.3-23.4,12.1-7.9,3.9-16,7.5-23.9,11.2-2.7,1.3-5.3,2.6-7.8,4.2-9.1,5.8-16.6,13.5-23.6,21.5-4.6,5.3-8.5,11.3-9.1,18.6-.4,5.1-.2,10.3-.8,15.3-.9,7.2-2.1,14.5-3.8,21.6-1.8,7.5-4.2,14.9-6.8,22.1-2.9,8.1-6,16-9.6,23.8-3.8,8.5-10.2,15.3-16,22.4-4.1,5-6.3,10.6-6.2,16.9.2,6.9,3.6,12.3,9.6,16.1,7.5,4.7,15.4,7.5,24.3,6,7.8-1.4,14.5-5.5,21.2-9.5,7.2-4.3,14.4-8.6,21.5-13.2,8.4-5.4,16.8-11,22.8-19.2,3.5-4.8,6.4-9.9,9.3-15,4-7.1,7.5-14.5,11.5-21.6,4.6-8.3,10.2-15.7,18.8-20.8,6.5-3.8,13.1-7.8,18.2-13.2,11-11.5,20.6-24.2,26.7-39.1,1.7-4.1,2.4-9.2,2-13.6-.7-7.1-2.6-14.1-4.3-21.6M362.7,95.5c.5-13.6-2.7-26-11.7-36.6-2.6-3-5.4-5.4-9.5-5.9-4.5-.6-8.8-1.6-13.1-3.5-2.6-1.1-6.3-1-9.1-.1-16.5,5.1-32.9,10.2-49.2,15.9-9.9,3.4-19.4,7.8-29.2,11.7-4.3,1.7-8.8,2.6-13,4.5-7.2,3.1-14.3,6.5-19.7,12.5-3.1,3.4-6,7.3-5.5,12.1.6,5.5,4.9,9.2,11.2,10.1,2.9.4,5.8.6,9.4,1-3.2,4.2-5.7,8.1-8.8,11.7-7,8.1-9.4,17.6-8.6,28,.4,4.7,1.4,9.3,2.5,13.9,2,8,5.2,15.4,11.3,21.4,6.9,6.9,15.7,6.8,22.5,2.4,2.2-1.4,4.4-3.1,6.9-3.8,3.4-1,7-1.2,10.5-1.6,6.2-.7,12.7-.4,18.7-1.9,10.4-2.6,20.5-6,30.7-9.4,6.2-2,12.3-4.3,18.3-6.7,7.4-3,14.3-6.9,20-12.4,3.3-3.2,6.3-6.8,8.6-10.8,5.2-9.1,2.8-18.5-.1-27.6-1.3-4-1.1-7.6.5-11.2,1.9-4.3,4-8.6,6.2-13.4M74.4,284.4c-1.9,1.5-4.1,2.9-5.8,4.7-4.2,4.4-8.5,8.9-12.3,13.6-6.4,7.8-8.5,16.4-4,26.1,2.2,4.7,7.3,8.8,12.4,8.1,6.2-.8,12.4-2.4,18.5-3.5,5.8-1.1,9.3-1,11.9,4.4,3.2,6.7,7.3,13.1,11.9,19,4.6,5.9,11.2,7.8,18.8,6.8,9.3-1.2,17.5-5.3,25.9-9,9.8-4.3,19.5-8.9,28.3-15.3,5.9-4.3,10.3-9.5,13.4-15.8,3.9-7.9,4.6-16.6,4.8-25.1.2-8.1-.9-16.1-1.6-24.2-1-12.3-9.1-17.4-19.3-20.2-8-2.1-15.8.4-23.4,2.4-5,1.3-9.7,3.9-14.6,5.7-5.2,1.9-10.5,3.5-15.8,5.1-4.1,1.2-8.2,2.2-12.3,3.5-6.7,2.1-13.3,4.4-20,6.6-5.7,1.9-11.7,3.1-16.9,7.1M148.5,197.2c2-3.1,4.2-6,6-9.2,3.3-5.8,4.6-11.9,2.9-18.5-2-7.6-5.4-14.4-9.9-20.9-4.4-6.4-9.7-10.5-17.4-11.4-8.4-1-16.1,1.1-20.7,8.6-3.9,6.4-9.5,10.8-15,15.4-10.2,8.5-20.8,16.7-30.9,25.4-6.1,5.3-11.7,11.3-17.2,17.3-2.6,2.9-4.8,6.3-6.5,9.8-2.6,5.3-5,10.7-6.9,16.3-2.8,7.7-5.2,15.6-7.5,23.5-1.2,4.1,1.5,9.4,5,11.1,1.8.9,3.4,2,5.3,2.7,3.4,1.3,6.9,3.4,10.3,3.4,11.5-.2,22.4-3.6,33.3-6.8,3.2-.9,6.4-2.2,9.4-3.7,9.8-4.9,17.8-12.2,25.4-19.8,6.4-6.4,12.1-13.5,17.7-20.6,5.7-7.2,11-14.7,16.8-22.4M468.3,212.7c3.1.4,6.4.5,9.4,1.3,5.8,1.5,11.7,3,17.2,5.3,4.7,2,7.2,6.7,9.5,11.1,4.2,7.8,10.1,12.9,21,10.9,3.8-.7,7.2-2.4,9-6.5,2.9-6.3,3.9-13,3.9-19.6,0-6.9-1.1-13.8-2.3-20.6-1-6.1-4-11.6-9-15.3-4.7-3.4-10.1-6.1-15.4-8.5-11.4-5.3-22.4-11.3-31.9-19.6-7.1-6.3-15.1-8.8-24.3-7.2-.7.1-1.6.9-1.8,1.6-2.1,6.5-4.5,12.8-5.8,19.5-1.7,8.4-2.1,17-1.3,25.6.6,6.2,1.4,12.5,6.9,16.8,4.2,3.3,9.2,4.3,14.8,5.3M307.2,216.9c-.3,8.6,4,15.6,8.7,22.2,2.6,3.7,5.4,7.3,8.5,10.6,4.8,5.3,10.1,10.4,17.5,11.6,6.1,1,12.3.8,18.3-1,12.6-3.8,16.2-9.4,16.3-20.1,0-5.6.1-11,2.4-16.2,1.5-3.4.3-7.4-2.9-9.4-4.5-2.9-9.2-5.4-13.8-8.1-.2-.1-.6-.2-.9-.2-3.5-.4-7.1-1-10.6-1.2-10.8-.4-21.6.3-32.3,2.2-5.7,1-9.3,3.9-11.1,9.7M380,304.1c-1.1.3-2.5.2-3.3.9-2.3,2.1-4.4,4.6-6.6,6.8-6.5,6.4-13.2,12.6-19.6,19-1.6,1.6-2.5,3.8-1.5,6.3,1.5,3.7,2.7,7.5,4.5,11,.9,1.8,2.8,3.2,4.5,4.6,3.4,2.7,7.4,1.6,11.2,1.5,6.8-.2,8.6.3,9.4,7.4.4,3.3.8,6.7,1.8,9.8,1.8,5.5,9,7.8,13.9,4.6,2.5-1.6,3.8-4,5.1-6.7,3.7-7.3,5.8-14.9,5.8-23.2,0-7.1-2-13.8-3.5-20.6-2.3-10.4-11.7-19.5-21.7-21.5M316.5,523.5c-1.1.9-2,1.9-3.2,2.6-8.1,4.6-16.3,9-24.3,13.6-6.2,3.5-8.4,6.4-7.2,12.2,1.3,6.3,4.7,11.3,9.6,15.6,5.3,4.5,11.1,5.6,17.5,3.8,5.1-1.4,10.1-3.4,15.1-5.3,4.9-1.9,7.3-6,8.3-10.8,1.2-6.4,2.8-12.4,7.6-17.3,4.7-4.9,6-10.8,3.7-17.3-.6-1.7-1.4-3.3-2.1-4.9-2.6-7-13-9.1-18.1-3.6-.7.8-1.7,1.9-1.6,2.8.4,4.1-2.8,6-5.2,8.8M76.9,435.6c6.9,4.5,14.1,7.4,22.6,6.1,6.6-.9,12.8-2.7,18.3-6.4,3.1-2.1,4.7-7.5,3.6-11.2-2.2-7.2-5.7-13.7-9.6-20-6.7-10.7-16.5-16.1-28.8-17.4-.6,0-1.4,0-1.7.4-1.5,1.7-3.4,3.3-4.1,5.3-2.6,7.1-4.8,14.4-7,21.7-3.2,10.4-1.6,15.8,6.7,21.5M451.8,58.3c-1.3-1.7-2.2-4.1-3.9-5.1-5.7-3.5-11.6-6.7-17.6-9.6-5.7-2.8-11.7-5.1-17.5-7.7-2.9-1.3-5.3-.4-6.3,2.6-1.4,4.3-2.9,8.6-4.1,13-1.9,7.2-2.9,14.4-.4,21.6.9,2.7,2.8,4.3,5.3,4.5,4.8.3,9.7,0,14.5.2,3.9.1,6.9-1.1,9.1-4.5,1.5-2.2,3.4-3.1,6.3-2.2,3.3.9,6.8,1.1,10.3,1.2,2.3,0,4.4-.6,5.7-3.1,2-3.8,1-7.2-1.3-10.9M514.6,470.8c-1,0-2,0-3,.2-4.4.3-8.3,3.1-8.8,7-.7,5.4-1.2,10.8-1.4,16.2-.2,3.8,2.5,6.8,6.2,7.1,8.5.7,18.6-2.8,23.6-10.8,4.3-6.8,7.1-14.3,8.2-22.2.6-3.8-.4-7.8-5-7.7-2.2,0-4.5,1.8-5.6,4.5-.3.7-.8,1.6-1.5,1.8-4.1,1.4-8.2,2.6-12.9,4M221.7,260.9c9.1-6,10.6-14.5,7.6-24.3-1.1-3.5-3.1-6.4-6.7-7.9-5.3-2.2-10.9-1.9-16.6-2-3.9,0-4.9,1.8-5.1,4.6-.6,10.3-.4,20.6,2.8,30.6,1.6,4.8,5.4,6.5,9.9,4.3,2.7-1.3,5.1-3.3,8-5.4M437.8,248.6c4.2-7.8,5.2-16,3.3-24.6-.9-4.2-4.1-6.1-7.8-4.4-2.2,1-4.4,2.8-5.7,4.9-2.6,4.3-5.4,8.1-9.8,10.8-3.6,2.2-7.1,4.8-10.1,7.7-1.4,1.4-2.6,4.2-2.2,6.1,1.1,6,8.2,10.6,14.3,10.1,7.6-.6,13.4-4.2,18-10.6M576.7,277.7c-.7-1.5-1.2-3.2-2.1-4.5-5.7-8.2-13.7-11.5-23.5-10.8-3.5.3-6.3,3.1-5.8,5.9.9,5.4,2.6,10.7,6.2,14.9,1.6,1.9,4.1,3.4,6.5,4.3,4.7,1.7,9.5.5,14.1-.7,3.6-.9,5.7-5.2,4.6-9.1M346.6,446.4c-1.2,1.2-3,2.2-3.5,3.7-1.6,4.6-2.9,9.4-4,14.1-.7,2.9,1.6,6.5,4.6,7.3,3.4.9,6.9,1.5,10.4,1.7,3.9.3,5.9-1.3,6.5-5.2.5-3.2.3-6.5.2-9.8,0-3.7-2.1-5.9-5.8-6.9-1.4-.4-2.4-1.9-3.7-2.7-1.4-.9-2.9-1.5-4.8-2.2M177.4,137.1c1.2-1.2,2.7-2.3,3.5-3.8,1.5-2.6,2.5-5.5,3.7-8.3,1-2.4,1.3-5.1-.7-6.9-1.9-1.8-4.4-3.1-7.2-1-.6.4-1.8.9-2.2.6-2.9-2.2-5,0-6.9,1.3-6.5,4.1-9.6,10.8-3.1,17.7,3,3.2,9.4,3.7,12.9.5M56.6,167.7c.3-.1.6-.3.9-.4,0,0-.1-.3-.2-.4-.3.2-.6.4-.7.9Z"/>
        <path class="cls-5" d="M55.6,154.2c-.6,4.2-.2,4.9,3.8,5.7-.4,1.2-.8,2.5-1.3,3.8-2.2-.7-2.8,0-3.3,2.4-.8,3.4-2.4,6.9-4.3,9.9-5.5,8.5-11.3,16.8-17.1,25.1-1.3,1.9-2.9,3.5-4.4,5.2-.6.6-1.5.8-2.3,1.2-1.4.6-2.7,1.2-4.3,1.7.5-1.3,1.1-2.6,2.2-4,1.2-.4,2.5-.6,2.8-1.2.3-.6-.5-1.7-.8-2.5,2.5-3.6,5-7.2,7.3-10.8.4-.6.3-1.6.6-2.7,1.1-1.5,2.1-2.7,3-4,.1-.2-.1-.7,0-1.1,1-1.2,1.8-2.5,2.6-3.6,0,0,0,0,.1,0,1.5-1.7,3.1-3.3,4.1-5.2.9-1.5,1.2-3.3,1.7-5,0,0,0,0,.1,0,1.3-1.8,2.5-3.6,3.8-5.4.4-.6.6-1.2.9-1.9.2-.5.4-.7.7-1.1,1.5-2.2,2.8-4.3,4.1-6.5Z"/>
        <path class="cls-6" d="M26.3,201.6c.4.7,1.2,1.7.9,2.3-.3.6-1.5.8-2.6,1.1.4-1.1,1-2.2,1.7-3.4Z"/>
        <path class="cls-2" d="M314.2,458.8c-8.1,11.2-15.8,22.3-24.2,33-3.8,4.9-8.7,9.1-13.5,13-6.8,5.7-13.9,11.2-21.2,16.3-6,4.2-12.3,8.2-18.8,11.6-10,5.2-20,4.1-29.5-3-5.9-4.4-8.5-10.8-11.7-16.9-4.3-8.1-7.7-16.5-9.7-25.5-1.1-4.8-1.7-9.7-2.5-14.6-1.1-7-6-11.3-10.8-15.9-5.1-4.9-10.2-9.8-14.9-15.1-2.8-3.2-3.1-7.6-2.4-11.9,1-6.2,1.3-12.6,2.9-18.7,1.4-5.6,3.5-11.2,6.2-16.3,7.6-14.4,19-25.9,30.4-37.3,6.6-6.7,14.7-11,22.1-16.4,8.9-6.5,17.4-13.4,26.1-20.2,7.1-5.5,14.8-9.5,23.8-10.6,6.8-.8,12.4,2,16.9,6.9,3.5,3.8,6.8,7.8,9.5,12.1,4,6.4,7.6,13.2,11,19.9,3.4,6.8,6.6,13.7,9.5,20.8,3.9,9.6,6.2,19.6,7.5,29.8,1.2,8.8,2.7,17.6,3.3,26.5.4,6.1-.2,12.5-3,18.2-2.3,4.7-4.7,9.4-7.1,14.2Z"/>
        <path class="cls-2" d="M545.3,337.6c1.5,7.3,3.5,14.3,4.2,21.4.4,4.5-.3,9.5-2,13.6-6.2,14.8-15.7,27.6-26.7,39.1-5.1,5.3-11.8,9.4-18.2,13.2-8.6,5-14.2,12.4-18.8,20.8-4,7.1-7.5,14.5-11.5,21.6-2.9,5.1-5.8,10.3-9.3,15-6,8.2-14.4,13.8-22.8,19.2-7.1,4.6-14.3,8.8-21.5,13.2-6.7,4-13.4,8.2-21.2,9.5-8.9,1.6-16.8-1.2-24.3-6-6-3.8-9.4-9.1-9.6-16.1-.1-6.3,2.1-11.9,6.2-16.9,5.8-7.1,12.2-13.9,16-22.4,3.5-7.8,6.7-15.8,9.6-23.8,2.6-7.3,5-14.7,6.8-22.1,1.7-7.1,2.9-14.3,3.8-21.6.7-5.1.4-10.2.8-15.3.6-7.4,4.5-13.4,9.1-18.6,7-8,14.5-15.7,23.6-21.5,2.5-1.6,5.2-2.9,7.8-4.2,8-3.8,16-7.3,23.9-11.2,7.9-3.9,15.6-8,23.4-12.1,9.9-5.3,20.7-7.5,29.8-.7,4.6,3.4,8.7,7.6,12.3,12,3.4,4.2,5.8,9.1,8.8,13.9Z"/>
        <path class="cls-2" d="M362.6,95.8c-2.1,4.5-4.2,8.8-6.1,13.1-1.6,3.6-1.8,7.2-.5,11.2,2.9,9.1,5.3,18.5.1,27.6-2.3,4-5.3,7.6-8.6,10.8-5.7,5.6-12.6,9.4-20,12.4-6,2.4-12.2,4.7-18.3,6.7-10.2,3.3-20.3,6.8-30.7,9.4-6,1.5-12.4,1.3-18.7,1.9-3.5.4-7.1.6-10.5,1.6-2.5.7-4.7,2.3-6.9,3.8-6.8,4.4-15.6,4.5-22.5-2.4-6.1-6-9.3-13.4-11.3-21.4-1.1-4.6-2.1-9.2-2.5-13.9-.8-10.4,1.7-19.8,8.6-28,3-3.5,5.6-7.4,8.8-11.7-3.6-.4-6.5-.6-9.4-1-6.3-.9-10.6-4.6-11.2-10.1-.5-4.8,2.3-8.6,5.5-12.1,5.4-5.9,12.5-9.3,19.7-12.5,4.2-1.8,8.7-2.8,13-4.5,9.7-3.8,19.3-8.2,29.2-11.7,16.3-5.6,32.7-10.8,49.2-15.9,2.8-.9,6.5-1,9.1.1,4.3,1.9,8.5,2.9,13.1,3.5,4.1.5,7,2.9,9.5,5.9,9,10.6,12.2,23,11.6,36.9Z"/>
        <path class="cls-2" d="M74.5,284.3c5.1-3.9,11.1-5.1,16.8-7,6.7-2.2,13.3-4.5,20-6.6,4.1-1.3,8.2-2.2,12.3-3.5,5.3-1.6,10.6-3.2,15.8-5.1,4.9-1.8,9.6-4.4,14.6-5.7,7.6-2,15.4-4.6,23.4-2.4,10.1,2.7,18.3,7.9,19.3,20.2.7,8.1,1.7,16.1,1.6,24.2-.2,8.5-.9,17.3-4.8,25.1-3.1,6.3-7.5,11.5-13.4,15.8-8.8,6.4-18.5,10.9-28.3,15.3-8.3,3.7-16.5,7.8-25.9,9-7.6,1-14.2-.9-18.8-6.8-4.6-5.9-8.7-12.3-11.9-19-2.6-5.4-6.1-5.5-11.9-4.4-6.2,1.2-12.3,2.8-18.5,3.5-5.1.6-10.2-3.5-12.4-8.1-4.6-9.7-2.5-18.3,4-26.1,3.9-4.7,8.1-9.2,12.3-13.6,1.7-1.8,3.8-3.1,5.9-4.8Z"/>
        <path class="cls-2" d="M148.4,197.4c-5.6,7.5-10.9,15-16.6,22.2-5.6,7.1-11.3,14.2-17.7,20.6-7.6,7.6-15.6,14.9-25.4,19.8-3,1.5-6.2,2.8-9.4,3.7-10.9,3.1-21.9,6.6-33.3,6.8-3.4,0-6.9-2.1-10.3-3.4-1.8-.7-3.5-1.8-5.3-2.7-3.5-1.7-6.2-7-5-11.1,2.3-7.9,4.7-15.7,7.5-23.5,2-5.5,4.3-11,6.9-16.3,1.7-3.5,3.9-7,6.5-9.8,5.5-6,11.1-11.9,17.2-17.3,10.1-8.7,20.7-16.8,30.9-25.4,5.5-4.6,11.1-9,15-15.4,4.6-7.5,12.3-9.6,20.7-8.6,7.6,1,13,5.1,17.4,11.4,4.5,6.5,7.9,13.3,9.9,20.9,1.7,6.6.4,12.8-2.9,18.5-1.8,3.2-4,6.1-6.2,9.4Z"/>
        <path class="cls-2" d="M468,212.8c-5.3-.9-10.4-2-14.6-5.3-5.5-4.2-6.3-10.5-6.9-16.8-.8-8.6-.4-17.2,1.3-25.6,1.3-6.6,3.8-13,5.8-19.5.2-.7,1.1-1.5,1.8-1.6,9.3-1.5,17.2,1,24.3,7.2,9.5,8.3,20.4,14.4,31.9,19.6,5.3,2.4,10.7,5.1,15.4,8.5,5,3.6,8,9.1,9,15.3,1.1,6.8,2.3,13.7,2.3,20.6,0,6.7-1,13.4-3.9,19.6-1.9,4-5.2,5.8-9,6.5-10.9,2-16.9-3.1-21-10.9-2.3-4.4-4.9-9.1-9.5-11.1-5.5-2.4-11.4-3.8-17.2-5.3-3-.8-6.2-.9-9.6-1.3Z"/>
        <path class="cls-3" d="M307.2,216.6c1.8-5.6,5.4-8.5,11.1-9.4,10.7-1.8,21.4-2.6,32.3-2.2,3.5.1,7.1.8,10.6,1.2.3,0,.6,0,.9.2,4.6,2.7,9.3,5.2,13.8,8.1,3.2,2,4.4,6,2.9,9.4-2.3,5.2-2.3,10.7-2.4,16.2-.1,10.8-3.7,16.3-16.3,20.1-6,1.8-12.2,2-18.3,1-7.5-1.2-12.7-6.3-17.5-11.6-3-3.4-5.9-6.9-8.5-10.6-4.7-6.7-9-13.6-8.6-22.5Z"/>
        <path class="cls-4" d="M380.2,304.3c9.8,1.8,19.2,10.9,21.5,21.3,1.5,6.8,3.5,13.5,3.5,20.6,0,8.2-2.2,15.8-5.8,23.2-1.3,2.6-2.6,5.1-5.1,6.7-4.9,3.1-12.2.9-13.9-4.6-1-3.2-1.4-6.5-1.8-9.8-.8-7-2.6-7.5-9.4-7.4-3.8,0-7.8,1.2-11.2-1.5-1.7-1.3-3.5-2.7-4.5-4.6-1.8-3.5-3-7.3-4.5-11-1-2.5,0-4.7,1.5-6.3,6.4-6.4,13.1-12.7,19.6-19,2.3-2.2,4.3-4.7,6.6-6.8.7-.7,2.2-.6,3.4-.7Z"/>
        <path class="cls-4" d="M316.7,523.4c2.2-2.7,5.4-4.6,5-8.7,0-.9.9-2,1.6-2.8,5.1-5.5,15.5-3.4,18.1,3.6.6,1.7,1.5,3.2,2.1,4.9,2.3,6.5,1,12.4-3.7,17.3-4.8,4.9-6.3,10.9-7.6,17.3-.9,4.8-3.4,8.9-8.3,10.8-5,1.9-10,3.9-15.1,5.3-6.4,1.8-12.3.7-17.5-3.8-4.9-4.2-8.4-9.2-9.6-15.6-1.2-5.8,1.1-8.6,7.2-12.2,8.1-4.6,16.2-9,24.3-13.6,1.2-.7,2.2-1.7,3.4-2.7Z"/>
        <path class="cls-4" d="M76.7,435.5c-8-5.6-9.7-11-6.5-21.4,2.2-7.3,4.4-14.5,7-21.7.7-2,2.6-3.6,4.1-5.3.3-.4,1.1-.4,1.7-.4,12.3,1.3,22.1,6.7,28.8,17.4,3.9,6.3,7.5,12.8,9.6,20,1.1,3.7-.5,9.1-3.6,11.2-5.5,3.8-11.8,5.5-18.3,6.4-8.5,1.2-15.8-1.6-22.8-6.3Z"/>
        <path class="cls-4" d="M452,58.5c2.2,3.5,3.2,6.9,1.2,10.8-1.3,2.4-3.4,3.2-5.7,3.1-3.4-.1-7-.3-10.3-1.2-3-.8-4.9,0-6.3,2.2-2.2,3.4-5.2,4.6-9.1,4.5-4.8-.2-9.7.2-14.5-.2-2.5-.2-4.4-1.8-5.3-4.5-2.6-7.3-1.5-14.5.4-21.6,1.2-4.4,2.6-8.7,4.1-13,1-3,3.4-3.9,6.3-2.6,5.8,2.6,11.8,4.9,17.5,7.7,6,2.9,11.9,6.1,17.6,9.6,1.7,1,2.7,3.4,4.1,5.3Z"/>
        <path class="cls-4" d="M514.9,470.7c4.4-1.3,8.5-2.5,12.6-3.9.6-.2,1.2-1.1,1.5-1.8,1-2.7,3.4-4.5,5.6-4.5,4.6,0,5.6,4,5,7.7-1.2,7.9-4,15.4-8.2,22.2-5,8-15.2,11.4-23.6,10.8-3.7-.3-6.4-3.3-6.2-7.1.2-5.4.7-10.8,1.4-16.2.5-3.9,4.4-6.7,8.8-7,1,0,2-.1,3.2-.3Z"/>
        <path class="cls-3" d="M221.6,261c-2.7,1.9-5.1,3.9-7.8,5.2-4.5,2.2-8.3.5-9.9-4.3-3.3-10-3.5-20.3-2.8-30.6.2-2.8,1.2-4.7,5.1-4.6,5.6.1,11.2-.2,16.6,2,3.6,1.5,5.6,4.3,6.7,7.9,2.9,9.8,1.5,18.2-7.8,24.4Z"/>
        <path class="cls-4" d="M437.7,248.8c-4.5,6.3-10.4,9.8-17.9,10.4-6.1.5-13.2-4.1-14.3-10.1-.3-1.9.8-4.7,2.2-6.1,3-2.9,6.5-5.5,10.1-7.7,4.4-2.7,7.2-6.5,9.8-10.8,1.3-2.1,3.5-3.9,5.7-4.9,3.7-1.7,6.8.2,7.8,4.4,1.9,8.6.9,16.8-3.4,24.8Z"/>
        <path class="cls-4" d="M576.8,277.9c.9,3.8-1.1,8-4.7,8.9-4.6,1.2-9.4,2.4-14.1.7-2.4-.9-4.9-2.4-6.5-4.3-3.6-4.2-5.3-9.5-6.2-14.9-.5-2.8,2.3-5.6,5.8-5.9,9.8-.7,17.8,2.6,23.5,10.8.9,1.3,1.4,3,2.2,4.7Z"/>
        <path class="cls-7" d="M346.8,446.4c1.7.7,3.2,1.4,4.5,2.3,1.3.8,2.3,2.4,3.7,2.7,3.6,1,5.7,3.1,5.8,6.9,0,3.3.2,6.6-.2,9.8-.6,3.9-2.6,5.5-6.5,5.2-3.5-.2-7-.8-10.4-1.7-3-.8-5.2-4.4-4.6-7.3,1.1-4.8,2.4-9.5,4-14.1.5-1.5,2.3-2.5,3.7-3.7Z"/>
        <path class="cls-3" d="M177.3,137.2c-3.4,3-9.7,2.5-12.8-.7-6.5-6.8-3.4-13.6,3.1-17.7,1.9-1.2,4.1-3.5,6.9-1.3.4.3,1.6-.1,2.2-.6,2.8-2.1,5.2-.8,7.2,1,2,1.9,1.7,4.5.7,6.9-1.2,2.8-2.2,5.7-3.7,8.3-.8,1.5-2.3,2.5-3.7,4Z"/>
        <path class="cls-1" d="M55.7,154c-1.5,2.3-2.8,4.4-4.2,6.4.4-2.6,1-5,1.6-7.5,0,0,0,0,.2.2,1-.4,1.9-.9,2.8-1.4,0,0,0,0,0,0-.1.7-.2,1.4-.5,2.2Z"/>
        <path class="cls-5" d="M56.5,167.6c.2-.3.5-.5.8-.7,0,.1.2.4.2.4-.3.2-.6.3-1,.3Z"/>
      </g>
    </g>
  </g>
</svg>