<svg width="16" height="28" viewBox="0 0 16 28" fill="none" xmlns="http://www.w3.org/2000/svg">
<path d="M4.0916 0.690586L15.3282 12.2422C15.5725 12.4933 15.7451 12.7653 15.8461 13.0583C15.9487 13.3513 16 13.6652 16 14C16 14.3348 15.9487 14.6487 15.8461 14.9417C15.7451 15.2347 15.5725 15.5067 15.3282 15.7578L4.0916 27.3094C3.64377 27.7698 3.07379 28 2.38168 28C1.68957 28 1.11959 27.7698 0.671757 27.3094C0.22392 26.849 0 26.2631 0 25.5516C0 24.8401 0.22392 24.2541 0.671757 23.7937L10.1985 14L0.671757 4.20628C0.22392 3.74589 0 3.15994 0 2.44843C0 1.73692 0.22392 1.15097 0.671757 0.690586C1.11959 0.230198 1.68957 0 2.38168 0C3.07379 0 3.64377 0.230198 4.0916 0.690586Z" fill="black"/>
</svg>
