<svg width="262" height="86" viewBox="0 0 262 86" fill="none" xmlns="http://www.w3.org/2000/svg">
<path d="M6.89062 14.3125H12.7969V15.25C12.7969 19.9479 12.3854 23.1198 11.5625 24.7656C10.75 26.4531 9.22917 27.2969 7 27.2969C4.69792 27.2969 3.05729 26.3594 2.07812 24.4844C1.10938 22.6094 0.625 19.4583 0.625 15.0312C0.625 9.96875 1.15625 6.59896 2.21875 4.92188C3.21875 3.34896 4.75521 2.5625 6.82812 2.5625C8.41146 2.5625 9.64583 2.94271 10.5312 3.70312C11.4271 4.47396 12.125 5.73958 12.625 7.5L9.59375 8.76562C9.45833 8.13021 9.30729 7.59896 9.14062 7.17188C8.97396 6.73438 8.79167 6.39583 8.59375 6.15625C8.19792 5.66667 7.60417 5.42188 6.8125 5.42188C5.72917 5.42188 4.98958 6.08854 4.59375 7.42188C4.19792 8.81771 4 11.3229 4 14.9375C4 18.5938 4.20312 21.0677 4.60938 22.3594C5.01562 23.651 5.78125 24.2969 6.90625 24.2969C7.9375 24.2969 8.66146 23.8385 9.07812 22.9219C9.50521 21.9427 9.71875 20.3698 9.71875 18.2031V17.5469V17.0625H6.89062V14.3125ZM15.875 10.8281H18.8594V12.8438C19.3698 11.9896 19.875 11.3906 20.375 11.0469C20.875 10.7031 21.5365 10.5052 22.3594 10.4531V13.5781C22.151 13.5469 21.974 13.5312 21.8281 13.5312C20.7552 13.5312 19.9896 13.8073 19.5312 14.3594C19.0833 14.901 18.8594 15.849 18.8594 17.2031V27H15.875V10.8281ZM30.7812 21.5469H33.5625C33.3438 25.349 31.7812 27.25 28.875 27.25C28.0104 27.25 27.2656 27.0885 26.6406 26.7656C26.026 26.4427 25.5156 25.9427 25.1094 25.2656C24.7031 24.5885 24.401 23.7292 24.2031 22.6875C24.0156 21.6458 23.9219 20.4062 23.9219 18.9688C23.9219 16.1146 24.3177 14 25.1094 12.625C25.9115 11.25 27.1458 10.5625 28.8125 10.5625C32.0521 10.5625 33.6719 13.4167 33.6719 19.125V19.5H26.8438C26.8438 22.9583 27.5312 24.6875 28.9062 24.6875C30.1562 24.6875 30.7812 23.6406 30.7812 21.5469ZM30.625 17.3438C30.5 15.6458 30.3073 14.5312 30.0469 14C29.776 13.4062 29.3385 13.1094 28.7344 13.1094C28.1198 13.1094 27.6823 13.4062 27.4219 14C27.1615 14.5312 26.9688 15.6458 26.8438 17.3438H30.625ZM42.5938 21.5469H45.375C45.1562 25.349 43.5938 27.25 40.6875 27.25C39.8229 27.25 39.0781 27.0885 38.4531 26.7656C37.8385 26.4427 37.3281 25.9427 36.9219 25.2656C36.5156 24.5885 36.2135 23.7292 36.0156 22.6875C35.8281 21.6458 35.7344 20.4062 35.7344 18.9688C35.7344 16.1146 36.1302 14 36.9219 12.625C37.724 11.25 38.9583 10.5625 40.625 10.5625C43.8646 10.5625 45.4844 13.4167 45.4844 19.125V19.5H38.6562C38.6562 22.9583 39.3438 24.6875 40.7188 24.6875C41.9688 24.6875 42.5938 23.6406 42.5938 21.5469ZM42.4375 17.3438C42.3125 15.6458 42.1198 14.5312 41.8594 14C41.5885 13.4062 41.151 13.1094 40.5469 13.1094C39.9323 13.1094 39.4948 13.4062 39.2344 14C38.974 14.5312 38.7812 15.6458 38.6562 17.3438H42.4375ZM48.1562 10.8281H51.1406V12.6875C51.9948 11.2708 53.099 10.5625 54.4531 10.5625C55.7656 10.5625 56.7031 11.0781 57.2656 12.1094C57.5781 12.6927 57.7344 13.8229 57.7344 15.5V27H54.75L54.7344 16.1875C54.7344 15.0938 54.6042 14.3177 54.3438 13.8594C54.0833 13.401 53.6354 13.1719 53 13.1719C52.6562 13.1719 52.3646 13.2344 52.125 13.3594C51.8958 13.474 51.7083 13.6667 51.5625 13.9375C51.4167 14.1979 51.3073 14.5417 51.2344 14.9688C51.1719 15.3958 51.1406 15.9219 51.1406 16.5469V27H48.1562V10.8281ZM67.9219 2.875H72.2031C74.2656 2.875 75.7656 3.39583 76.7031 4.4375C77.6406 5.48958 78.1094 7.15625 78.1094 9.4375C78.1094 12.6458 77.1667 14.7188 75.2812 15.6562C74.3333 16.0833 72.9635 16.2969 71.1719 16.2969V27H67.9219V2.875ZM71.1719 13.5156C72.5156 13.5156 73.4427 13.2448 73.9531 12.7031C74.474 12.151 74.7344 11.1719 74.7344 9.76562C74.7344 8.32812 74.4844 7.27604 73.9844 6.60938C73.4844 5.94271 72.6979 5.60938 71.625 5.60938H71.1719V13.5156ZM80.4375 0.453125H83.4219V27H80.4375V0.453125ZM96.0469 10.8281V27H93.0625V24.9219C92.6354 25.8073 92.2083 26.4167 91.7812 26.75C91.3542 27.0833 90.7917 27.25 90.0938 27.25C88.75 27.25 87.7656 26.5625 87.1406 25.1875C86.5156 23.8125 86.2031 21.6562 86.2031 18.7188C86.2031 15.9167 86.5156 13.8594 87.1406 12.5469C87.7656 11.224 88.75 10.5625 90.0938 10.5625C91.3229 10.5625 92.3125 11.2604 93.0625 12.6562V10.8281H96.0469ZM89.2969 18.8438C89.2969 20.9688 89.4375 22.4531 89.7188 23.2969C90.0104 24.1406 90.5208 24.5625 91.25 24.5625C91.9167 24.5625 92.401 24.125 92.7031 23.25C93.0052 22.3125 93.1562 20.8698 93.1562 18.9219C93.1562 16.9635 93.0052 15.5156 92.7031 14.5781C92.401 13.7031 91.9167 13.2656 91.25 13.2656C90.5417 13.2656 90.0365 13.6823 89.7344 14.5156C89.4427 15.2865 89.2969 16.7292 89.2969 18.8438ZM99.4375 10.8281H102.422V12.6875C103.276 11.2708 104.38 10.5625 105.734 10.5625C107.047 10.5625 107.984 11.0781 108.547 12.1094C108.859 12.6927 109.016 13.8229 109.016 15.5V27H106.031L106.016 16.1875C106.016 15.0938 105.885 14.3177 105.625 13.8594C105.365 13.401 104.917 13.1719 104.281 13.1719C103.938 13.1719 103.646 13.2344 103.406 13.3594C103.177 13.474 102.99 13.6667 102.844 13.9375C102.698 14.1979 102.589 14.5417 102.516 14.9688C102.453 15.3958 102.422 15.9219 102.422 16.5469V27H99.4375V10.8281ZM118.656 21.5469H121.438C121.219 25.349 119.656 27.25 116.75 27.25C115.885 27.25 115.141 27.0885 114.516 26.7656C113.901 26.4427 113.391 25.9427 112.984 25.2656C112.578 24.5885 112.276 23.7292 112.078 22.6875C111.891 21.6458 111.797 20.4062 111.797 18.9688C111.797 16.1146 112.193 14 112.984 12.625C113.786 11.25 115.021 10.5625 116.688 10.5625C119.927 10.5625 121.547 13.4167 121.547 19.125V19.5H114.719C114.719 22.9583 115.406 24.6875 116.781 24.6875C118.031 24.6875 118.656 23.6406 118.656 21.5469ZM118.5 17.3438C118.375 15.6458 118.182 14.5312 117.922 14C117.651 13.4062 117.214 13.1094 116.609 13.1094C115.995 13.1094 115.557 13.4062 115.297 14C115.036 14.5312 114.844 15.6458 114.719 17.3438H118.5ZM124.578 6.29688H127.562V10.8281H129.188V13.2031H127.562V27H124.578V13.2031H122.938V10.8281H124.578V6.29688ZM139.281 2.875H142.062L144.188 12.7188C144.448 13.9479 144.682 15.1823 144.891 16.4219C145.109 17.651 145.307 18.9427 145.484 20.2969C145.505 20.1198 145.521 19.9844 145.531 19.8906C145.542 19.7865 145.552 19.7135 145.562 19.6719L146.016 16.9062L146.422 14.2812L146.781 12.5469L148.672 2.875H151.484L153.703 27H150.594L150.047 18.8125C150.026 18.3958 150.005 18.0365 149.984 17.7344C149.974 17.4323 149.969 17.1823 149.969 16.9844L149.828 13.75L149.75 10.7812C149.75 10.7604 149.745 10.7188 149.734 10.6562C149.734 10.5833 149.729 10.4896 149.719 10.375L149.641 10.8594C149.557 11.4323 149.479 11.9323 149.406 12.3594C149.344 12.7865 149.286 13.1458 149.234 13.4375L148.828 15.6406L148.672 16.4688L146.641 27H144.453L142.547 17.9062C142.286 16.7083 142.052 15.4948 141.844 14.2656C141.646 13.026 141.464 11.7292 141.297 10.375L140.359 27H137.297L139.281 2.875ZM162.469 21.5469H165.25C165.031 25.349 163.469 27.25 160.562 27.25C159.698 27.25 158.953 27.0885 158.328 26.7656C157.714 26.4427 157.203 25.9427 156.797 25.2656C156.391 24.5885 156.089 23.7292 155.891 22.6875C155.703 21.6458 155.609 20.4062 155.609 18.9688C155.609 16.1146 156.005 14 156.797 12.625C157.599 11.25 158.833 10.5625 160.5 10.5625C163.74 10.5625 165.359 13.4167 165.359 19.125V19.5H158.531C158.531 22.9583 159.219 24.6875 160.594 24.6875C161.844 24.6875 162.469 23.6406 162.469 21.5469ZM162.312 17.3438C162.188 15.6458 161.995 14.5312 161.734 14C161.464 13.4062 161.026 13.1094 160.422 13.1094C159.807 13.1094 159.37 13.4062 159.109 14C158.849 14.5312 158.656 15.6458 158.531 17.3438H162.312ZM168.031 10.8281H171.016V12.8438C171.526 11.9896 172.031 11.3906 172.531 11.0469C173.031 10.7031 173.693 10.5052 174.516 10.4531V13.5781C174.307 13.5469 174.13 13.5312 173.984 13.5312C172.911 13.5312 172.146 13.8073 171.688 14.3594C171.24 14.901 171.016 15.849 171.016 17.2031V27H168.031V10.8281ZM183.297 11.1406V14.1875C182.88 13.6771 182.38 13.4219 181.797 13.4219C180.151 13.4219 179.328 15.2031 179.328 18.7656C179.328 22.5469 180.146 24.4375 181.781 24.4375C182.24 24.4375 182.745 24.2344 183.297 23.8281V26.625C182.505 27.0417 181.703 27.25 180.891 27.25C177.682 27.25 176.078 24.5208 176.078 19.0625C176.078 16.1562 176.474 14.0156 177.266 12.6406C178.057 11.2552 179.286 10.5625 180.953 10.5625C181.755 10.5625 182.536 10.7552 183.297 11.1406ZM185.656 0.453125H188.641V12.6875C189.495 11.2708 190.599 10.5625 191.953 10.5625C193.266 10.5625 194.203 11.0781 194.766 12.1094C195.078 12.6927 195.234 13.8229 195.234 15.5V27H192.25L192.234 16.1875C192.234 15.0938 192.104 14.3177 191.844 13.8594C191.583 13.401 191.135 13.1719 190.5 13.1719C190.156 13.1719 189.865 13.2344 189.625 13.3594C189.396 13.474 189.208 13.6667 189.062 13.9375C188.917 14.1979 188.807 14.5417 188.734 14.9688C188.672 15.3958 188.641 15.9219 188.641 16.5469V27H185.656V0.453125ZM207.859 10.8281V27H204.875V24.9219C204.448 25.8073 204.021 26.4167 203.594 26.75C203.167 27.0833 202.604 27.25 201.906 27.25C200.562 27.25 199.578 26.5625 198.953 25.1875C198.328 23.8125 198.016 21.6562 198.016 18.7188C198.016 15.9167 198.328 13.8594 198.953 12.5469C199.578 11.224 200.562 10.5625 201.906 10.5625C203.135 10.5625 204.125 11.2604 204.875 12.6562V10.8281H207.859ZM201.109 18.8438C201.109 20.9688 201.25 22.4531 201.531 23.2969C201.823 24.1406 202.333 24.5625 203.062 24.5625C203.729 24.5625 204.214 24.125 204.516 23.25C204.818 22.3125 204.969 20.8698 204.969 18.9219C204.969 16.9635 204.818 15.5156 204.516 14.5781C204.214 13.7031 203.729 13.2656 203.062 13.2656C202.354 13.2656 201.849 13.6823 201.547 14.5156C201.255 15.2865 201.109 16.7292 201.109 18.8438ZM211.25 10.8281H214.234V12.6875C215.089 11.2708 216.193 10.5625 217.547 10.5625C218.859 10.5625 219.797 11.0781 220.359 12.1094C220.672 12.6927 220.828 13.8229 220.828 15.5V27H217.844L217.828 16.1875C217.828 15.0938 217.698 14.3177 217.438 13.8594C217.177 13.401 216.729 13.1719 216.094 13.1719C215.75 13.1719 215.458 13.2344 215.219 13.3594C214.99 13.474 214.802 13.6667 214.656 13.9375C214.51 14.1979 214.401 14.5417 214.328 14.9688C214.266 15.3958 214.234 15.9219 214.234 16.5469V27H211.25V10.8281ZM233.453 0.453125V27H230.469V24.9219C230.042 25.8073 229.615 26.4167 229.188 26.75C228.76 27.0833 228.193 27.25 227.484 27.25C226.151 27.25 225.172 26.5677 224.547 25.2031C223.922 23.8281 223.609 21.6719 223.609 18.7344C223.609 17.3177 223.688 16.0938 223.844 15.0625C224 14.0312 224.234 13.1823 224.547 12.5156C224.87 11.849 225.281 11.3594 225.781 11.0469C226.281 10.724 226.875 10.5625 227.562 10.5625C228.219 10.5625 228.76 10.7188 229.188 11.0312C229.396 11.1771 229.609 11.3854 229.828 11.6562C230.047 11.9271 230.26 12.2604 230.469 12.6562V0.453125H233.453ZM226.703 18.8438C226.703 20.9688 226.844 22.4531 227.125 23.2969C227.417 24.1406 227.927 24.5625 228.656 24.5625C229.323 24.5625 229.807 24.125 230.109 23.25C230.411 22.3125 230.562 20.8698 230.562 18.9219C230.562 16.9635 230.411 15.5156 230.109 14.5781C229.807 13.7031 229.323 13.2656 228.656 13.2656C227.948 13.2656 227.443 13.6823 227.141 14.5156C226.849 15.2865 226.703 16.7292 226.703 18.8438ZM236.844 10.8281H239.844V27H236.844V10.8281ZM238.25 3.95312C238.792 3.95312 239.26 4.15104 239.656 4.54688C240.052 4.94271 240.25 5.41667 240.25 5.96875C240.25 6.53125 240.052 7.01042 239.656 7.40625C239.26 7.80208 238.781 8 238.219 8C237.656 8 237.177 7.80208 236.781 7.40625C236.396 7.02083 236.203 6.53646 236.203 5.95312C236.203 5.41146 236.401 4.94271 236.797 4.54688C237.224 4.15104 237.708 3.95312 238.25 3.95312ZM249.469 11.1562V13.9531C248.74 13.4115 247.974 13.1406 247.172 13.1406C246.901 13.1406 246.651 13.1875 246.422 13.2812C246.193 13.375 245.99 13.5052 245.812 13.6719C245.646 13.8281 245.51 14.0208 245.406 14.25C245.312 14.4688 245.266 14.7031 245.266 14.9531C245.266 15.724 245.964 16.6406 247.359 17.7031C247.922 18.1406 248.391 18.5469 248.766 18.9219C249.141 19.2969 249.427 19.651 249.625 19.9844C250.031 20.6406 250.234 21.4688 250.234 22.4688C250.234 23.9167 249.812 25.0781 248.969 25.9531C248.135 26.8177 247.016 27.25 245.609 27.25C244.745 27.25 243.87 26.9948 242.984 26.4844V23.5938C243.849 24.2396 244.667 24.5625 245.438 24.5625C246.802 24.5625 247.484 23.8906 247.484 22.5469C247.484 22.0469 247.359 21.6146 247.109 21.25C246.995 21.0729 246.812 20.8698 246.562 20.6406C246.312 20.401 246.005 20.1354 245.641 19.8438C244.38 18.8646 243.526 18.0417 243.078 17.375C242.641 16.6875 242.422 15.8594 242.422 14.8906C242.422 13.5885 242.823 12.5208 243.625 11.6875C244.438 10.8646 245.495 10.4531 246.797 10.4531C247.714 10.4531 248.604 10.6875 249.469 11.1562ZM258.875 21.5469H261.656C261.438 25.349 259.875 27.25 256.969 27.25C256.104 27.25 255.359 27.0885 254.734 26.7656C254.12 26.4427 253.609 25.9427 253.203 25.2656C252.797 24.5885 252.495 23.7292 252.297 22.6875C252.109 21.6458 252.016 20.4062 252.016 18.9688C252.016 16.1146 252.411 14 253.203 12.625C254.005 11.25 255.24 10.5625 256.906 10.5625C260.146 10.5625 261.766 13.4167 261.766 19.125V19.5H254.938C254.938 22.9583 255.625 24.6875 257 24.6875C258.25 24.6875 258.875 23.6406 258.875 21.5469ZM258.719 17.3438C258.594 15.6458 258.401 14.5312 258.141 14C257.87 13.4062 257.432 13.1094 256.828 13.1094C256.214 13.1094 255.776 13.4062 255.516 14C255.255 14.5312 255.062 15.6458 254.938 17.3438H258.719ZM76.1562 55.2656V58.1875C75.3229 57.7812 74.625 57.5781 74.0625 57.5781C73.2917 57.5781 72.6302 57.7708 72.0781 58.1562C71.526 58.5312 71.0677 59.1146 70.7031 59.9062C70.349 60.6979 70.0833 61.7031 69.9062 62.9219C69.7396 64.1302 69.6562 65.5625 69.6562 67.2188C69.6562 73.1771 71.1823 76.1562 74.2344 76.1562C74.7656 76.1562 75.4062 75.9896 76.1562 75.6562V78.6406C75.375 79.0781 74.5 79.2969 73.5312 79.2969C68.6458 79.2969 66.2031 75.3073 66.2031 67.3281C66.2031 63.0156 66.7969 59.8073 67.9844 57.7031C69.1823 55.599 71.0104 54.5469 73.4688 54.5469C74.375 54.5469 75.2708 54.7865 76.1562 55.2656ZM88.2812 71.0469C88.2812 76.5156 86.5885 79.25 83.2031 79.25C79.8177 79.25 78.125 76.474 78.125 70.9219C78.125 65.349 79.8125 62.5625 83.1875 62.5625C84.0625 62.5625 84.8177 62.7292 85.4531 63.0625C86.099 63.3958 86.6302 63.9115 87.0469 64.6094C87.4635 65.3073 87.7708 66.1875 87.9688 67.25C88.1771 68.3125 88.2812 69.5781 88.2812 71.0469ZM85.1875 70.9688C85.1875 68.8438 85.0469 67.3646 84.7656 66.5312C84.4844 65.6875 83.9844 65.2656 83.2656 65.2656C82.5573 65.2656 82.0521 65.6823 81.75 66.5156C81.4688 67.349 81.3281 68.8021 81.3281 70.875C81.3281 72.9479 81.4688 74.3958 81.75 75.2188C82.0521 76.0521 82.5573 76.4688 83.2656 76.4688C83.974 76.4688 84.4688 76.0573 84.75 75.2344C85.0417 74.4635 85.1875 73.0417 85.1875 70.9688ZM91.0781 62.8281H94.0625V64.8281C94.8854 63.3177 95.9792 62.5625 97.3438 62.5625C98.8333 62.5625 99.8438 63.3177 100.375 64.8281C101.167 63.3177 102.292 62.5625 103.75 62.5625C104.885 62.5625 105.75 62.8646 106.344 63.4688C106.948 64.0625 107.25 64.9427 107.25 66.1094V79H104.25V68.3594C104.25 67.1406 104.135 66.3229 103.906 65.9062C103.688 65.4792 103.26 65.2656 102.625 65.2656C101.906 65.2656 101.417 65.4844 101.156 65.9219C100.906 66.349 100.781 67.1615 100.781 68.3594V79H97.6875V68.3594C97.6875 67.7865 97.6562 67.3021 97.5938 66.9062C97.5417 66.5104 97.4479 66.1927 97.3125 65.9531C97.1771 65.7135 97 65.5417 96.7812 65.4375C96.5625 65.3229 96.2917 65.2656 95.9688 65.2656C95.2812 65.2656 94.7917 65.5 94.5 65.9688C94.2083 66.4375 94.0625 67.2344 94.0625 68.3594V79H91.0781V62.8281ZM110.641 62.8281H113.641V79H110.641V62.8281ZM112.047 55.9531C112.589 55.9531 113.057 56.151 113.453 56.5469C113.849 56.9427 114.047 57.4167 114.047 57.9688C114.047 58.5312 113.849 59.0104 113.453 59.4062C113.057 59.8021 112.578 60 112.016 60C111.453 60 110.974 59.8021 110.578 59.4062C110.193 59.0208 110 58.5365 110 57.9531C110 57.4115 110.198 56.9427 110.594 56.5469C111.021 56.151 111.505 55.9531 112.047 55.9531ZM117.016 62.8281H120V64.6875C120.854 63.2708 121.958 62.5625 123.312 62.5625C124.625 62.5625 125.562 63.0781 126.125 64.1094C126.438 64.6927 126.594 65.8229 126.594 67.5V79H123.609L123.594 68.1875C123.594 67.0938 123.464 66.3177 123.203 65.8594C122.943 65.401 122.495 65.1719 121.859 65.1719C121.516 65.1719 121.224 65.2344 120.984 65.3594C120.755 65.474 120.568 65.6667 120.422 65.9375C120.276 66.1979 120.167 66.5417 120.094 66.9688C120.031 67.3958 120 67.9219 120 68.5469V79H117.016V62.8281ZM136.25 62.8281H139.25V79.5156C139.25 81.5156 139.052 82.901 138.656 83.6719C137.927 85.0885 136.464 85.7969 134.266 85.7969C132.818 85.7969 131.682 85.3854 130.859 84.5625C130.026 83.7292 129.609 82.6094 129.609 81.2031L129.625 80.7031H132.516C132.516 82.4219 133.156 83.2812 134.438 83.2812C135.135 83.2812 135.609 83.0625 135.859 82.625C136.12 82.2083 136.25 81.3802 136.25 80.1406V77.0312C135.615 78.5104 134.641 79.25 133.328 79.25C131.974 79.25 130.974 78.5938 130.328 77.2812C129.693 75.9688 129.375 73.9167 129.375 71.125C129.375 68.1667 129.682 65.9844 130.297 64.5781C130.901 63.2344 131.906 62.5625 133.312 62.5625C133.979 62.5625 134.521 62.724 134.938 63.0469C135.354 63.3698 135.792 63.9427 136.25 64.7656V62.8281ZM136.297 71.0625C136.297 67.1979 135.63 65.2656 134.297 65.2656C133.661 65.2656 133.198 65.7031 132.906 66.5781C132.615 67.4427 132.469 68.8333 132.469 70.75C132.469 72.7812 132.62 74.276 132.922 75.2344C133.234 76.1198 133.755 76.5625 134.484 76.5625C135.172 76.5625 135.646 76.1667 135.906 75.375C136.167 74.6354 136.297 73.1979 136.297 71.0625ZM157.484 55.375V58.5469C156.495 57.8385 155.604 57.4844 154.812 57.4844C153.958 57.4844 153.26 57.7865 152.719 58.3906C152.177 58.9635 151.906 59.7292 151.906 60.6875C151.906 61.5312 152.099 62.2552 152.484 62.8594C152.682 63.1823 153.005 63.599 153.453 64.1094C153.911 64.6198 154.5 65.2344 155.219 65.9531C156.542 67.2969 157.443 68.4583 157.922 69.4375C158.401 70.3854 158.641 71.5469 158.641 72.9219C158.641 74.7865 158.115 76.3229 157.062 77.5312C156.01 78.7083 154.661 79.2969 153.016 79.2969C151.63 79.2969 150.448 78.9167 149.469 78.1562V74.9375C150.625 75.7812 151.677 76.2031 152.625 76.2031C153.51 76.2031 154.203 75.9115 154.703 75.3281C155.203 74.7344 155.453 73.9323 155.453 72.9219C155.453 72.0469 155.26 71.2604 154.875 70.5625C154.677 70.2292 154.401 69.849 154.047 69.4219C153.693 68.9844 153.25 68.5 152.719 67.9688C151.896 67.1562 151.214 66.4375 150.672 65.8125C150.13 65.1875 149.729 64.6406 149.469 64.1719C148.969 63.2552 148.719 62.099 148.719 60.7031C148.719 58.8177 149.208 57.3229 150.188 56.2188C151.177 55.1042 152.505 54.5469 154.172 54.5469C155.328 54.5469 156.432 54.8229 157.484 55.375ZM170.75 71.0469C170.75 76.5156 169.057 79.25 165.672 79.25C162.286 79.25 160.594 76.474 160.594 70.9219C160.594 65.349 162.281 62.5625 165.656 62.5625C166.531 62.5625 167.286 62.7292 167.922 63.0625C168.568 63.3958 169.099 63.9115 169.516 64.6094C169.932 65.3073 170.24 66.1875 170.438 67.25C170.646 68.3125 170.75 69.5781 170.75 71.0469ZM167.656 70.9688C167.656 68.8438 167.516 67.3646 167.234 66.5312C166.953 65.6875 166.453 65.2656 165.734 65.2656C165.026 65.2656 164.521 65.6823 164.219 66.5156C163.938 67.349 163.797 68.8021 163.797 70.875C163.797 72.9479 163.938 74.3958 164.219 75.2188C164.521 76.0521 165.026 76.4688 165.734 76.4688C166.443 76.4688 166.938 76.0573 167.219 75.2344C167.51 74.4635 167.656 73.0417 167.656 70.9688ZM183.094 71.0469C183.094 76.5156 181.401 79.25 178.016 79.25C174.63 79.25 172.938 76.474 172.938 70.9219C172.938 65.349 174.625 62.5625 178 62.5625C178.875 62.5625 179.63 62.7292 180.266 63.0625C180.911 63.3958 181.443 63.9115 181.859 64.6094C182.276 65.3073 182.583 66.1875 182.781 67.25C182.99 68.3125 183.094 69.5781 183.094 71.0469ZM180 70.9688C180 68.8438 179.859 67.3646 179.578 66.5312C179.297 65.6875 178.797 65.2656 178.078 65.2656C177.37 65.2656 176.865 65.6823 176.562 66.5156C176.281 67.349 176.141 68.8021 176.141 70.875C176.141 72.9479 176.281 74.3958 176.562 75.2188C176.865 76.0521 177.37 76.4688 178.078 76.4688C178.786 76.4688 179.281 76.0573 179.562 75.2344C179.854 74.4635 180 73.0417 180 70.9688ZM185.891 62.8281H188.875V64.6875C189.729 63.2708 190.833 62.5625 192.188 62.5625C193.5 62.5625 194.438 63.0781 195 64.1094C195.312 64.6927 195.469 65.8229 195.469 67.5V79H192.484L192.469 68.1875C192.469 67.0938 192.339 66.3177 192.078 65.8594C191.818 65.401 191.37 65.1719 190.734 65.1719C190.391 65.1719 190.099 65.2344 189.859 65.3594C189.63 65.474 189.443 65.6667 189.297 65.9375C189.151 66.1979 189.042 66.5417 188.969 66.9688C188.906 67.3958 188.875 67.9219 188.875 68.5469V79H185.891V62.8281Z" fill="black"/>
</svg>
