<svg width="605" height="596" viewBox="0 0 605 596" fill="none" xmlns="http://www.w3.org/2000/svg">
<path d="M520.2 93.1C522.2 96.3 524 99.7 526.1 102.8C528.2 106 531 108.6 533 112C534.2 114.1 536.6 115.4 538.5 117.1C541.2 119.5 543.8 121.9 546.5 124.2C546.9 124.5 547.5 124.6 548.2 124.7C548.4 124.7 548.2 124.7 548.2 124.8C549.8 127.2 551.3 129.6 553.1 131.6C559.1 138.2 560.9 146.5 563.1 154.6C564.7 160.2 565.8 166 567.3 171.6C567.5 172.2 568.5 172.5 569.1 173C569.1 173 569.1 173 569.1 173.2C569.1 174.1 568.8 174.9 569.1 175.4C571.5 180 574.2 184.5 576.3 189.2C578.6 194.3 580.4 199.7 582.3 205C583.8 209.2 585.2 213.4 586.5 217.6C587.8 221.6 588.9 225.7 590.1 229.9C590.5 231 590.9 231.9 591.4 232.8C591.4 232.8 591.4 232.8 591.4 233C592.3 234.9 593.3 236.5 594.3 238.3C594.3 238.4 594.3 238.7 594.3 238.8C594.5 239.1 594.6 239.3 594.9 239.6C596.2 242.4 597.6 244.9 598.4 247.6C600.1 253 601.6 258.5 603 264C603.7 267 604.3 270.2 604.2 273.3C604 278.7 603.4 284.1 602.6 289.4C601.4 296.7 600.5 304.1 598.2 311C597 314.7 597.4 318.2 596.9 321.7C596.2 326.8 597 332.1 596.5 337.3C595.9 343.6 594.3 349.6 591.6 355.5C589.2 360.6 587.5 365.9 585.5 371.1C584.8 373.1 584 375 583.5 377.1C583 379.2 583 381.3 582.7 383.4C582.2 386.7 581.8 390 581.1 393.3C580.3 397.3 579.2 401.3 578.3 405.3C577.6 408.2 577 411.2 576.3 414.1C576.3 414.1 576.3 414.1 576.1 413.9C575.4 414.2 574.7 414.6 574.5 415.2C573.1 418.8 571.9 422.4 570.6 426C569.9 427.8 569.1 429.5 568.4 431.2C566.6 435.9 564.5 440.5 563.1 445.4C561.7 450.6 561.5 456.2 559.9 461.3C557.5 468.9 557.2 477.2 552.3 484C552.1 484.2 551.9 484.5 551.9 484.8C552.1 487.5 550.7 489.3 548.5 490.6C545.7 492.3 543.1 494.3 540.1 495.7C533.3 498.8 528.2 503.4 525 510.2C524.6 511.2 524.4 512.3 524.1 513.3C524.1 513.3 524.1 513.3 524 513.1C521.7 514.8 519.1 516.4 519.4 519.8C519.4 519.8 519.4 519.8 519.3 519.6C518.3 520.8 517.4 522.1 516.5 523.4C516.5 523.4 516.5 523.4 516.3 523.4C515.7 523.5 515.3 523.6 515.1 523.9C510 529.8 504.4 534.7 497.3 538.4C491.6 541.4 485.6 543 479.7 545.2C475.6 546.7 471.3 547.6 467.2 549C461.4 551.1 455.7 553.4 450 555.7C444 558.1 438.2 560.8 432.2 563.2C428.7 564.6 425.1 566 421.4 566.9C416.5 568.1 412 570.1 407.5 572.3C403.6 574.3 399.5 576.2 395.3 577.4C390.3 578.8 385.2 579.5 380.1 580.5C373.8 581.8 367.6 583.1 361.3 584.3C356.6 585.2 351.9 585.7 347.2 586.6C343.5 587.3 339.9 588.3 336.2 589.1C329.5 590.5 322.8 591.8 316.1 593.1C314.6 593.4 312.9 593.1 311.4 593.4C308.4 593.9 305.5 594.9 302.5 595.2C299.1 595.6 295.7 595.6 292.2 595.6C288.1 595.6 284 595.8 280 595.3C276.6 594.9 273.3 593 269.9 592.7C264.9 592.3 260.5 589.8 255.3 589.9C249.8 589.9 244.2 588 238.5 589C234.6 589.7 230.3 589.6 226.8 591.2C218.8 595 210.8 595.1 202.7 593.1C198.6 592.1 194.6 590.1 190.6 588.5C186.9 587 183.2 585.8 179.7 584C175.2 581.6 171 578.3 166.4 576C162.4 574 158.1 572.7 153.9 571.1C151.8 570.3 149.8 569.4 147.8 568.5C146.7 568 145.5 567.6 144.3 567.4C143.3 567.2 142.2 567.1 141.2 566.9C141.2 566.9 141.2 566.9 141.4 566.8C139.3 564.9 137 563.2 134.7 561.4C133.8 560.5 133.1 559.8 132.3 558.9C130.9 556.3 129.5 553.9 128.1 551.5C126.1 547.9 124.1 544.2 122 540.6C122 540.5 121.3 540.6 120.9 540.6C120.9 540.6 120.9 540.6 120.9 540.4C120.6 538.9 120.6 537.6 120 536.6C117.6 532.3 115.1 528 112.5 523.7C111.4 521.9 110.2 520.2 108.9 518.3C107.6 516.4 106.4 514.7 105.2 512.8C104.2 511 103.3 509.2 102.2 507.7C101.7 507.1 100.6 506.9 99.9 506.5C99.9 506.5 99.9 506.5 100.1 506.3C99.6 505.6 98.8 505.2 98.1 504.7C98.1 504.7 98.1 504.7 98.3 504.6C97.6 503.5 96.6 502.7 95.7 501.8C95.7 501.8 95.7 501.8 95.9 501.7C94.4 499 92.3 497.3 89.1 497.1C89.1 497.1 89.1 497.1 89.3 496.9C89 496.4 88.4 496.2 87.9 495.9C87.7 495.2 87.7 494.2 87.2 493.7C83.4 489.9 79.1 487 73.8 485.2C67.7 483.1 61.4 481.5 56 477.6C52.5 475.1 48.3 473.4 44.2 471.4C44 471.4 44.2 471.4 44.2 471.3C42.4 469.6 40.6 468.1 38.7 466.7C37.7 465.9 36.4 465.5 35.3 464.9C35.3 464.9 35.3 464.9 35.3 464.7C34.7 463.8 34 463.2 33.4 462.5C33.4 462.5 33.4 462.5 33.4 462.3C32.3 460.8 32.1 458.3 29.4 458.8C29.2 458.6 29 458.4 28.9 458.2C27.8 455.9 26.9 453.6 25.7 451.4C23.9 448.1 21.7 445 20.1 441.6C16.8 434.7 13 427.9 12.5 419.9C12.5 419.2 12.1 418.6 12.2 417.7C13.2 414.2 13.9 411 12 408C11.8 401.1 11.6 394.2 11.2 387.3C11.2 386.1 10.6 384.8 9.9 383.8C6 377.6 3.4 371 2.8 363.6C2.6 360.6 1.7 357.6 1.7 354.5C1.7 351.5 0.8 348.2 3.3 345.5C3.5 345.3 3.4 344.9 3.4 344.6C4.2 337.4 5 330.3 5.8 323.1C6 321.3 5.8 319.5 5.6 317.7C4.7 309.5 3.7 301.4 2.9 293.2C2.2 286.2 1.5 279.2 1.1 272.1C0.6 263.2 1.3 254.4 3.5 245.8C4.5 241.9 5.8 238.1 8 234.4C10.1 230.8 10.8 226.2 11.8 222C12.9 217.2 13.5 212.3 14.6 207.4C14.9 205.9 15.9 204.5 16.8 202.7C17.1 202.3 17.2 202.1 17.2 201.9C17.2 201.9 17.2 201.6 17.4 201.4C17.7 201.1 17.8 200.9 17.8 200.7C17.8 200.7 17.8 200.7 18 200.7C19.6 200.1 20.9 199.5 22.3 198.9C23.1 198.6 24 198.3 24.6 197.7C26.2 196.1 27.7 194.4 29 192.5C34.8 184.2 40.6 175.9 46.1 167.4C48 164.4 49.6 161 50.4 157.5C51 155.2 51.6 154.4 53.7 155.1C54.2 153.7 54.6 152.5 55 151.3C51 150.5 50.5 149.8 51.3 145.5C51.6 144.7 51.7 144 52 143.3C52.5 142.9 52.7 142.5 52.9 142C52.9 142 52.9 142 53 142C53.3 141.6 53.4 141.3 53.7 140.8C54 140.1 53.8 139.4 54.1 139C56.4 135.4 58.7 131.8 61 128.1C61.4 127.5 61.2 126.6 61.2 125.8C61.2 125.8 61.2 125.8 61.4 125.8C62.3 124.6 63 123.4 63.6 122.2C63.6 122.2 63.6 122.2 63.7 122.2C64.5 121.6 65.2 121 66.1 120.4C66.8 119.2 67.3 118 67.8 116.8C67.8 116.8 67.8 116.8 67.9 116.8C68.2 116.6 68.3 116.4 68.4 116.2C68.4 116.2 68.4 116.2 68.6 116.2C69.5 115.2 70.2 114.2 70.8 113C70.7 112.6 70.5 112.2 70.6 112.1C73.9 107.6 77.2 103.1 80.4 98.6C81 97.8 80.8 96.4 81 95.3C81 95.3 81 95.3 81.2 95.3C82.3 94.5 83.3 93.8 84 92.9C85.9 90.6 87.6 88.1 89.4 85.8C89.4 85.8 89.4 85.8 89.6 85.8C90.7 85 91.5 84.1 92.4 83.3C92.4 83.3 92.4 83.3 92.6 83.3C98.8 80.1 104.8 76.9 110.8 73.5C111.6 73 112.1 72.1 112.8 71.3C112.8 71.3 112.8 71.3 112.9 71.5C117 69.8 117.5 69.2 117.6 66.7C117.9 66.4 118.2 66.2 118.6 66.2C119.4 65.8 119.9 65.2 120.5 64.7C120.5 64.7 120.5 64.7 120.7 64.7C121.6 63.9 122.3 63.1 122.9 62.3C122.9 62.3 122.9 62.3 123 62.3C123.3 61.9 123.4 61.5 123.5 61.1C123.5 61.1 123.5 61.1 123.7 61.1C125.7 59.9 127.5 58.8 129.2 57.4C129.9 56.9 130.2 55.8 130.7 55.1C131.9 54.8 133.3 54.7 134.4 54.1C140 51.2 145.5 48 151.2 45.2C154.4 43.7 157.9 43 161.3 41.8C165 40.5 168.6 38.6 172.4 37.8C179.4 36.5 184.5 31.7 190.5 28.6C191 28.3 191.3 27.6 191.5 26.9C191.2 26.7 191.3 26.7 191.5 26.9C195.3 25.1 199 23.1 202.7 21C203.1 20.8 203.1 20 203.3 19.5C203.3 19.5 203.3 19.5 203.5 19.5C206 18.3 208.2 17.1 210.5 15.9C210.5 15.9 210.5 15.9 210.7 15.9C215.1 13.9 219.2 11.8 223.4 10.1C226.4 8.9 229.8 8.7 232.6 7.2C239.2 3.7 246.5 3.1 253.5 1.7C257.2 1 261 -0.1 265.1 0.7C268.3 1.3 271.8 0 275.2 0C279 0 282.8 0.3 286.7 0.4C289.2 0.4 291.7 0.4 294.2 0.4C296 0.4 297.8 0.7 299.6 1C303 1.6 306.5 2.1 309.8 3.1C316.8 5.4 323.4 9.4 331.2 8.7C333.4 8.5 335.6 8.8 337.8 8.7C339 8.7 340.3 7.4 341.3 7.7C345.4 8.7 349 6 353.2 6.6C359.1 7.4 365.3 6.6 371.3 7.2C380.1 8.3 388.8 10 397.5 11.8C400.3 12.4 403.1 13.6 405.8 14.6C408.1 15.5 410.2 16.7 412.4 17.7C414 18.4 415.7 18.8 417.3 19.5C422.4 21.8 427.5 24.3 432.6 26.6C434.1 27.3 436.4 27.3 437.3 28.5C439.3 31 442.1 30.5 444.4 31.4C444.4 31.4 444.4 31.4 444.4 31.6C445.4 32.3 446.4 32.8 447.4 33.2C447.4 33.2 447.4 33.2 447.4 33.4C448.8 34.3 450.2 35 451.6 35.7C451.6 35.7 451.6 35.7 451.4 35.8C452.8 37 454.3 38.1 455.8 39.2C455.8 39.2 455.8 39.2 455.8 39.4C457.1 42 458.9 43.8 461.8 44.1C462.1 47.1 465.2 47.1 466.7 48.9C467 49.2 467.6 49.3 468.2 49.3C468.4 49.1 468.4 49.1 468.2 49.3C471 52.2 473.9 55 477 57.8C477.2 58 477.8 57.8 478.1 57.8C478.1 57.8 478.1 57.8 478.1 58C479.1 59.9 479.9 61.9 482.3 62C482.3 62 482.3 62 482.3 62.2C484.2 65 486.1 67.6 488.2 70C489.3 71.3 490.7 72.3 491.9 73.4C491.9 73.4 491.9 73.4 491.9 73.6C492.1 74.6 492.1 75.5 492.5 76C493.4 77 493.3 79.3 495.5 78.8C495.5 78.8 495.5 78.8 495.5 79C495.5 79.7 495.5 80.5 495.8 80.6C498.7 81.7 501.4 83.7 504.8 83.1C505.4 83 506 83.5 506.6 83.7C509.1 84.5 511.5 85.2 514 86C514 86 514 86 513.8 86.1C514.1 86.7 514.6 87.2 515.3 87.8C517.2 89.3 518.8 90.7 520.5 92M310.3 450.6C312.6 445.9 315 441.3 317.3 436.6C320.1 430.8 320.7 424.5 320.3 418.4C319.7 409.5 318.1 400.8 317 391.9C315.7 381.7 313.4 371.6 309.5 362.1C306.6 355.1 303.4 348.1 300 341.3C296.6 334.5 293 327.8 289 321.4C286.3 317.1 282.9 313.1 279.5 309.3C275.1 304.4 269.4 301.6 262.6 302.4C253.6 303.5 245.9 307.4 238.8 313C230.1 319.8 221.6 326.7 212.7 333.2C205.3 338.6 197.2 342.9 190.6 349.6C179.2 361.1 167.8 372.5 160.2 386.9C157.5 392 155.4 397.6 154 403.2C152.5 409.3 152.1 415.7 151.1 421.9C150.4 426.2 150.8 430.6 153.5 433.8C158.1 439.1 163.3 444 168.4 448.9C173.1 453.5 178 457.8 179.2 464.8C180 469.7 180.7 474.6 181.7 479.4C183.7 488.4 187.1 496.8 191.4 504.9C194.6 511 197.2 517.4 203.1 521.8C212.6 528.9 222.6 530.1 232.6 524.8C239.1 521.4 245.4 517.4 251.4 513.2C258.7 508.1 265.7 502.6 272.6 496.9C277.4 492.9 282.2 488.7 286.1 483.9C294.5 473.2 302.2 462 310.4 450.7M541.2 329.3C538.3 324.7 535.9 319.8 532.5 315.6C528.9 311.2 524.8 307 520.2 303.6C511 296.8 500.3 299 490.4 304.3C482.7 308.4 474.9 312.6 467 316.4C459.1 320.3 451 323.9 443.1 327.6C440.4 328.9 437.8 330.2 435.3 331.8C426.2 337.6 418.7 345.3 411.7 353.3C407.1 358.6 403.2 364.6 402.6 371.9C402.2 377 402.4 382.2 401.8 387.2C400.9 394.4 399.7 401.7 398 408.8C396.2 416.3 393.8 423.7 391.2 430.9C388.3 439 385.2 446.9 381.6 454.7C377.8 463.2 371.4 470 365.6 477.1C361.5 482.1 359.3 487.7 359.4 494C359.6 500.9 363 506.3 369 510.1C376.5 514.8 384.4 517.6 393.3 516.1C401.1 514.7 407.8 510.6 414.5 506.6C421.7 502.3 428.9 498 436 493.4C444.4 488 452.8 482.4 458.8 474.2C462.3 469.4 465.2 464.3 468.1 459.2C472.1 452.1 475.6 444.7 479.6 437.6C484.2 429.3 489.8 421.9 498.4 416.8C504.9 413 511.5 409 516.6 403.6C527.6 392.1 537.2 379.4 543.3 364.5C545 360.4 545.7 355.3 545.3 350.9C544.6 343.8 542.7 336.8 541 329.3M358.7 87.5C359.2 73.9 356 61.5 347 50.9C344.4 47.9 341.6 45.5 337.5 45C333 44.4 328.7 43.4 324.4 41.5C321.8 40.4 318.1 40.5 315.3 41.4C298.8 46.5 282.4 51.6 266.1 57.3C256.2 60.7 246.7 65.1 236.9 69C232.6 70.7 228.1 71.6 223.9 73.5C216.7 76.6 209.6 80 204.2 86C201.1 89.4 198.2 93.3 198.7 98.1C199.3 103.6 203.6 107.3 209.9 108.2C212.8 108.6 215.7 108.8 219.3 109.2C216.1 113.4 213.6 117.3 210.5 120.9C203.5 129 201.1 138.5 201.9 148.9C202.3 153.6 203.3 158.2 204.4 162.8C206.4 170.8 209.6 178.2 215.7 184.2C222.6 191.1 231.4 191 238.2 186.6C240.4 185.2 242.6 183.5 245.1 182.8C248.5 181.8 252.1 181.6 255.6 181.2C261.8 180.5 268.3 180.8 274.3 179.3C284.7 176.7 294.8 173.3 305 169.9C311.2 167.9 317.3 165.6 323.3 163.2C330.7 160.2 337.6 156.3 343.3 150.8C346.6 147.6 349.6 144 351.9 140C357.1 130.9 354.7 121.5 351.8 112.4C350.5 108.4 350.7 104.8 352.3 101.2C354.2 96.9 356.3 92.6 358.5 87.8M70.4 276.4C68.5 277.9 66.3 279.3 64.6 281.1C60.4 285.5 56.1 290 52.3 294.7C45.9 302.5 43.8 311.1 48.3 320.8C50.5 325.5 55.6 329.6 60.7 328.9C66.9 328.1 73.1 326.5 79.2 325.4C85 324.3 88.5 324.4 91.1 329.8C94.3 336.5 98.4 342.9 103 348.8C107.6 354.7 114.2 356.6 121.8 355.6C131.1 354.4 139.3 350.3 147.7 346.6C157.5 342.3 167.2 337.7 176 331.3C181.9 327 186.3 321.8 189.4 315.5C193.3 307.6 194 298.9 194.2 290.4C194.4 282.3 193.3 274.3 192.6 266.2C191.6 253.9 183.5 248.8 173.3 246C165.3 243.9 157.5 246.4 149.9 248.4C144.9 249.7 140.2 252.3 135.3 254.1C130.1 256 124.8 257.6 119.5 259.2C115.4 260.4 111.3 261.4 107.2 262.7C100.5 264.8 93.9 267.1 87.2 269.3C81.5 271.2 75.5 272.4 70.3 276.4M144.5 189.2C146.5 186.1 148.7 183.2 150.5 180C153.8 174.2 155.1 168.1 153.4 161.5C151.4 153.9 148 147.1 143.5 140.6C139.1 134.2 133.8 130.1 126.1 129.2C117.7 128.2 110 130.3 105.4 137.8C101.5 144.2 95.9 148.6 90.4 153.2C80.2 161.7 69.6 169.9 59.5 178.6C53.4 183.9 47.8 189.9 42.3 195.9C39.7 198.8 37.5 202.2 35.8 205.7C33.2 211 30.8 216.4 28.9 222C26.1 229.7 23.7 237.6 21.4 245.5C20.2 249.6 22.9 254.9 26.4 256.6C28.2 257.5 29.8 258.6 31.7 259.3C35.1 260.6 38.6 262.7 42 262.7C53.5 262.5 64.4 259.1 75.3 255.9C78.5 255 81.7 253.7 84.7 252.2C94.5 247.3 102.5 240 110.1 232.4C116.5 226 122.2 218.9 127.8 211.8C133.5 204.6 138.8 197.1 144.6 189.4M464.3 204.7C467.4 205.1 470.7 205.2 473.7 206C479.5 207.5 485.4 209 490.9 211.3C495.6 213.3 498.1 218 500.4 222.4C504.6 230.2 510.5 235.3 521.4 233.3C525.2 232.6 528.6 230.9 530.4 226.8C533.3 220.5 534.3 213.8 534.3 207.2C534.3 200.3 533.2 193.4 532 186.6C531 180.5 528 175 523 171.3C518.3 167.9 512.9 165.2 507.6 162.8C496.2 157.5 485.2 151.5 475.7 143.2C468.6 136.9 460.6 134.4 451.4 136C450.7 136.1 449.8 136.9 449.6 137.6C447.5 144.1 445.1 150.4 443.8 157.1C442.1 165.5 441.7 174.1 442.5 182.7C443.1 188.9 443.9 195.2 449.4 199.5C453.6 202.8 458.6 203.8 464.2 204.8M303.2 208.9C302.9 217.5 307.2 224.5 311.9 231.1C314.5 234.8 317.3 238.4 320.4 241.7C325.2 247 330.5 252.1 337.9 253.3C344 254.3 350.2 254.1 356.2 252.3C368.8 248.5 372.4 242.9 372.5 232.2C372.5 226.6 372.6 221.2 374.9 216C376.4 212.6 375.2 208.6 372 206.6C367.5 203.7 362.8 201.2 358.2 198.5C358 198.4 357.6 198.3 357.3 198.3C353.8 197.9 350.2 197.3 346.7 197.1C335.9 196.7 325.1 197.4 314.4 199.3C308.7 200.3 305.1 203.2 303.3 209M376 296.1C374.9 296.4 373.5 296.3 372.7 297C370.4 299.1 368.3 301.6 366.1 303.8C359.6 310.2 352.9 316.4 346.5 322.8C344.9 324.4 344 326.6 345 329.1C346.5 332.8 347.7 336.6 349.5 340.1C350.4 341.9 352.3 343.3 354 344.7C357.4 347.4 361.4 346.3 365.2 346.2C372 346 373.8 346.5 374.6 353.6C375 356.9 375.4 360.3 376.4 363.4C378.2 368.9 385.4 371.2 390.3 368C392.8 366.4 394.1 364 395.4 361.3C399.1 354 401.2 346.4 401.2 338.1C401.2 331 399.2 324.3 397.7 317.5C395.4 307.1 386 298 376 296M312.5 515.5C311.4 516.4 310.5 517.4 309.3 518.1C301.2 522.7 293 527.1 285 531.7C278.8 535.2 276.6 538.1 277.8 543.9C279.1 550.2 282.5 555.2 287.4 559.5C292.7 564 298.5 565.1 304.9 563.3C310 561.9 315 559.9 320 558C324.9 556.1 327.3 552 328.3 547.2C329.5 540.8 331.1 534.8 335.9 529.9C340.6 525 341.9 519.1 339.6 512.6C339 510.9 338.2 509.3 337.5 507.7C334.9 500.7 324.5 498.6 319.4 504.1C318.7 504.9 317.7 506 317.8 506.9C318.2 511 315 512.9 312.6 515.7M72.9 427.6C79.8 432.1 87 435 95.5 433.7C102.1 432.8 108.3 431 113.8 427.3C116.9 425.2 118.5 419.8 117.4 416.1C115.2 408.9 111.7 402.4 107.8 396.1C101.1 385.4 91.3 380 79 378.7C78.4 378.7 77.6 378.7 77.3 379.1C75.8 380.8 73.9 382.4 73.2 384.4C70.6 391.5 68.4 398.8 66.2 406.1C63 416.5 64.6 421.9 72.9 427.6ZM447.8 50.3C446.5 48.6 445.6 46.2 443.9 45.2C438.2 41.7 432.3 38.5 426.3 35.6C420.6 32.8 414.6 30.5 408.8 27.9C405.9 26.6 403.5 27.5 402.5 30.5C401.1 34.8 399.6 39.1 398.4 43.5C396.5 50.7 395.5 57.9 398 65.1C398.9 67.8 400.8 69.4 403.3 69.6C408.1 69.9 413 69.6 417.8 69.8C421.7 69.9 424.7 68.7 426.9 65.3C428.4 63.1 430.3 62.2 433.2 63.1C436.5 64 440 64.2 443.5 64.3C445.8 64.3 447.9 63.7 449.2 61.2C451.2 57.4 450.2 54 447.9 50.3M510.6 462.8C509.6 462.8 508.6 462.8 507.6 463C503.2 463.3 499.3 466.1 498.8 470C498.1 475.4 497.6 480.8 497.4 486.2C497.2 490 499.9 493 503.6 493.3C512.1 494 522.2 490.5 527.2 482.5C531.5 475.7 534.3 468.2 535.4 460.3C536 456.5 535 452.5 530.4 452.6C528.2 452.6 525.9 454.4 524.8 457.1C524.5 457.8 524 458.7 523.3 458.9C519.2 460.3 515.1 461.5 510.4 462.9M217.7 252.9C226.8 246.9 228.3 238.4 225.3 228.6C224.2 225.1 222.2 222.2 218.6 220.7C213.3 218.5 207.7 218.8 202 218.7C198.1 218.7 197.1 220.5 196.9 223.3C196.3 233.6 196.5 243.9 199.7 253.9C201.3 258.7 205.1 260.4 209.6 258.2C212.3 256.9 214.7 254.9 217.6 252.8M433.8 240.6C438 232.8 439 224.6 437.1 216C436.2 211.8 433 209.9 429.3 211.6C427.1 212.6 424.9 214.4 423.6 216.5C421 220.8 418.2 224.6 413.8 227.3C410.2 229.5 406.7 232.1 403.7 235C402.3 236.4 401.1 239.2 401.5 241.1C402.6 247.1 409.7 251.7 415.8 251.2C423.4 250.6 429.2 247 433.8 240.6ZM572.7 269.7C572 268.2 571.5 266.5 570.6 265.2C564.9 257 556.9 253.7 547.1 254.4C543.6 254.7 540.8 257.5 541.3 260.3C542.2 265.7 543.9 271 547.5 275.2C549.1 277.1 551.6 278.6 554 279.5C558.7 281.2 563.5 280 568.1 278.8C571.7 277.9 573.8 273.6 572.7 269.7ZM342.6 438.4C341.4 439.6 339.6 440.6 339.1 442.1C337.5 446.7 336.2 451.5 335.1 456.2C334.4 459.1 336.7 462.7 339.7 463.5C343.1 464.4 346.6 465 350.1 465.2C354 465.5 356 463.9 356.6 460C357.1 456.8 356.9 453.5 356.8 450.2C356.8 446.5 354.7 444.3 351 443.3C349.6 442.9 348.6 441.4 347.3 440.6C345.9 439.7 344.4 439.1 342.5 438.4M173.4 129.1C174.6 127.9 176.1 126.8 176.9 125.3C178.4 122.7 179.4 119.8 180.6 117C181.6 114.6 181.9 111.9 179.9 110.1C178 108.3 175.5 107 172.7 109.1C172.1 109.5 170.9 110 170.5 109.7C167.6 107.5 165.5 109.7 163.6 111C157.1 115.1 154 121.8 160.5 128.7C163.5 131.9 169.9 132.4 173.4 129.2M52.6 159.7C52.9 159.6 53.2 159.4 53.5 159.3C53.5 159.3 53.4 159 53.3 158.9C53 159.1 52.7 159.3 52.6 159.8V159.7Z" fill="#89FF50"/>
<path d="M51.6 146.2C51 150.4 51.4 151.1 55.4 151.9C55 153.1 54.6 154.4 54.1 155.7C51.9 155 51.3 155.7 50.8 158.1C50 161.5 48.4 165 46.5 168C41 176.5 35.2 184.8 29.4 193.1C28.1 195 26.5 196.6 25 198.3C24.4 198.9 23.5 199.1 22.7 199.5C21.3 200.1 20 200.7 18.4 201.2C18.9 199.9 19.5 198.6 20.6 197.2C21.8 196.8 23.1 196.6 23.4 196C23.7 195.4 22.9 194.3 22.6 193.5C25.1 189.9 27.6 186.3 29.9 182.7C30.3 182.1 30.2 181.1 30.5 180C31.6 178.5 32.6 177.3 33.5 176C33.6 175.8 33.4 175.3 33.5 174.9C34.5 173.7 35.3 172.4 36.1 171.3C36.1 171.3 36.1 171.3 36.2 171.3C37.7 169.6 39.3 168 40.3 166.1C41.2 164.6 41.5 162.8 42 161.1C42 161.1 42 161.1 42.1 161.1C43.4 159.3 44.6 157.5 45.9 155.7C46.3 155.1 46.5 154.5 46.8 153.8C47 153.3 47.2 153.1 47.5 152.7C49 150.5 50.3 148.4 51.6 146.2Z" fill="#91FF5C"/>
<path d="M22.3 193.6C22.7 194.3 23.5 195.3 23.2 195.9C22.9 196.5 21.7 196.7 20.6 197C21 195.9 21.6 194.8 22.3 193.6Z" fill="#89FF50"/>
<path d="M310.2 450.8C302.1 462 294.4 473.1 286 483.8C282.2 488.7 277.3 492.9 272.5 496.8C265.7 502.5 258.6 508 251.3 513.1C245.3 517.3 239 521.3 232.5 524.7C222.5 529.9 212.5 528.8 203 521.7C197.1 517.3 194.5 510.9 191.3 504.8C187 496.7 183.6 488.3 181.6 479.3C180.5 474.5 179.9 469.6 179.1 464.7C178 457.7 173.1 453.4 168.3 448.8C163.2 443.9 158.1 439 153.4 433.7C150.6 430.5 150.3 426.1 151 421.8C152 415.6 152.3 409.2 153.9 403.1C155.3 397.5 157.4 391.9 160.1 386.8C167.7 372.4 179.1 360.9 190.5 349.5C197.1 342.8 205.2 338.5 212.6 333.1C221.5 326.6 230 319.7 238.7 312.9C245.8 307.4 253.5 303.4 262.5 302.3C269.3 301.5 274.9 304.3 279.4 309.2C282.9 313 286.2 317 288.9 321.3C292.9 327.7 296.5 334.5 299.9 341.2C303.3 348 306.5 354.9 309.4 362C313.3 371.6 315.6 381.6 316.9 391.8C318.1 400.6 319.6 409.4 320.2 418.3C320.6 424.4 320 430.8 317.2 436.5C314.9 441.2 312.5 445.9 310.1 450.7L310.2 450.8Z" fill="#67B83F"/>
<path d="M541.3 329.6C542.8 336.9 544.8 343.9 545.5 351C545.9 355.5 545.2 360.5 543.5 364.6C537.3 379.4 527.8 392.2 516.8 403.7C511.7 409 505 413.1 498.6 416.9C490 421.9 484.4 429.3 479.8 437.7C475.8 444.8 472.3 452.2 468.3 459.3C465.4 464.4 462.5 469.6 459 474.3C453 482.5 444.6 488.1 436.2 493.5C429.1 498.1 421.9 502.3 414.7 506.7C408 510.7 401.3 514.9 393.5 516.2C384.6 517.8 376.7 515 369.2 510.2C363.2 506.4 359.8 501.1 359.6 494.1C359.5 487.8 361.7 482.2 365.8 477.2C371.6 470.1 378 463.3 381.8 454.8C385.3 447 388.5 439 391.4 431C394 423.7 396.4 416.3 398.2 408.9C399.9 401.8 401.1 394.6 402 387.3C402.7 382.2 402.4 377.1 402.8 372C403.4 364.6 407.3 358.6 411.9 353.4C418.9 345.4 426.4 337.7 435.5 331.9C438 330.3 440.7 329 443.3 327.7C451.3 323.9 459.3 320.4 467.2 316.5C475.1 312.6 482.8 308.5 490.6 304.4C500.5 299.1 511.3 296.9 520.4 303.7C525 307.1 529.1 311.3 532.7 315.7C536.1 319.9 538.5 324.8 541.5 329.6H541.3Z" fill="#67B83F"/>
<path d="M358.6 87.7999C356.5 92.2999 354.4 96.5999 352.5 100.9C350.9 104.5 350.7 108.1 352 112.1C354.9 121.2 357.3 130.6 352.1 139.7C349.8 143.7 346.8 147.3 343.5 150.5C337.8 156.1 330.9 159.9 323.5 162.9C317.5 165.3 311.3 167.6 305.2 169.6C295 172.9 284.9 176.4 274.5 179C268.5 180.5 262.1 180.3 255.8 180.9C252.3 181.3 248.7 181.5 245.3 182.5C242.8 183.2 240.6 184.8 238.4 186.3C231.6 190.7 222.8 190.8 215.9 183.9C209.8 177.9 206.6 170.5 204.6 162.5C203.5 157.9 202.5 153.3 202.1 148.6C201.3 138.2 203.8 128.8 210.7 120.6C213.7 117.1 216.3 113.2 219.5 108.9C215.9 108.5 213 108.3 210.1 107.9C203.8 107 199.5 103.3 198.9 97.7999C198.4 92.9999 201.2 89.1999 204.4 85.6999C209.8 79.7999 216.9 76.3999 224.1 73.1999C228.3 71.3999 232.8 70.3999 237.1 68.6999C246.8 64.8999 256.4 60.4999 266.3 56.9999C282.6 51.3999 299 46.1999 315.5 41.0999C318.3 40.1999 322 40.0999 324.6 41.1999C328.9 43.0999 333.1 44.0999 337.7 44.6999C341.8 45.1999 344.7 47.5999 347.2 50.5999C356.2 61.1999 359.4 73.5999 358.8 87.4999L358.6 87.7999Z" fill="#67B83F"/>
<path d="M70.5 276.3C75.6 272.4 81.6 271.2 87.3 269.3C94 267.1 100.6 264.8 107.3 262.7C111.4 261.4 115.5 260.5 119.6 259.2C124.9 257.6 130.2 256 135.4 254.1C140.3 252.3 145 249.7 150 248.4C157.6 246.4 165.4 243.8 173.4 246C183.5 248.7 191.7 253.9 192.7 266.2C193.4 274.3 194.4 282.3 194.3 290.4C194.1 298.9 193.4 307.7 189.5 315.5C186.4 321.8 182 327 176.1 331.3C167.3 337.7 157.6 342.2 147.8 346.6C139.5 350.3 131.3 354.4 121.9 355.6C114.3 356.6 107.7 354.7 103.1 348.8C98.5 342.9 94.4 336.5 91.2 329.8C88.6 324.4 85.1 324.3 79.3 325.4C73.1 326.6 67 328.2 60.8 328.9C55.7 329.5 50.6 325.4 48.4 320.8C43.8 311.1 45.9 302.5 52.4 294.7C56.3 290 60.5 285.5 64.7 281.1C66.4 279.3 68.5 278 70.6 276.3H70.5Z" fill="#67B83F"/>
<path d="M144.4 189.4C138.8 196.9 133.5 204.4 127.8 211.6C122.2 218.7 116.5 225.8 110.1 232.2C102.5 239.8 94.5 247.1 84.7 252C81.7 253.5 78.5 254.8 75.3 255.7C64.4 258.8 53.4 262.3 42 262.5C38.6 262.5 35.1 260.4 31.7 259.1C29.9 258.4 28.2 257.3 26.4 256.4C22.9 254.7 20.2 249.4 21.4 245.3C23.7 237.4 26.1 229.6 28.9 221.8C30.9 216.3 33.2 210.8 35.8 205.5C37.5 202 39.7 198.5 42.3 195.7C47.8 189.7 53.4 183.8 59.5 178.4C69.6 169.7 80.2 161.6 90.4 153C95.9 148.4 101.5 144 105.4 137.6C110 130.1 117.7 128 126.1 129C133.7 130 139.1 134.1 143.5 140.4C148 146.9 151.4 153.7 153.4 161.3C155.1 167.9 153.8 174.1 150.5 179.8C148.7 183 146.5 185.9 144.3 189.2L144.4 189.4Z" fill="#67B83F"/>
<path d="M464 204.8C458.7 203.9 453.6 202.8 449.4 199.5C443.9 195.3 443.1 189 442.5 182.7C441.7 174.1 442.1 165.5 443.8 157.1C445.1 150.5 447.6 144.1 449.6 137.6C449.8 136.9 450.7 136.1 451.4 136C460.7 134.5 468.6 137 475.7 143.2C485.2 151.5 496.1 157.6 507.6 162.8C512.9 165.2 518.3 167.9 523 171.3C528 174.9 531 180.4 532 186.6C533.1 193.4 534.3 200.3 534.3 207.2C534.3 213.9 533.3 220.6 530.4 226.8C528.5 230.8 525.2 232.6 521.4 233.3C510.5 235.3 504.5 230.2 500.4 222.4C498.1 218 495.5 213.3 490.9 211.3C485.4 208.9 479.5 207.5 473.7 206C470.7 205.2 467.5 205.1 464.1 204.7L464 204.8Z" fill="#67B83F"/>
<path d="M303.2 208.6C305 203 308.6 200.1 314.3 199.2C325 197.4 335.7 196.6 346.6 197C350.1 197.1 353.7 197.8 357.2 198.2C357.5 198.2 357.8 198.2 358.1 198.4C362.7 201.1 367.4 203.6 371.9 206.5C375.1 208.5 376.3 212.5 374.8 215.9C372.5 221.1 372.5 226.6 372.4 232.1C372.3 242.9 368.7 248.4 356.1 252.2C350.1 254 343.9 254.2 337.8 253.2C330.3 252 325.1 246.9 320.3 241.6C317.3 238.2 314.4 234.7 311.8 231C307.1 224.3 302.8 217.4 303.2 208.5V208.6Z" fill="#68B93F"/>
<path d="M376.2 296.3C386 298.1 395.4 307.2 397.7 317.6C399.2 324.4 401.2 331.1 401.2 338.2C401.2 346.4 399 354 395.4 361.4C394.1 364 392.8 366.5 390.3 368.1C385.4 371.2 378.1 369 376.4 363.5C375.4 360.3 375 357 374.6 353.7C373.8 346.7 372 346.2 365.2 346.3C361.4 346.3 357.4 347.5 354 344.8C352.3 343.5 350.5 342.1 349.5 340.2C347.7 336.7 346.5 332.9 345 329.2C344 326.7 345 324.5 346.5 322.9C352.9 316.5 359.6 310.2 366.1 303.9C368.4 301.7 370.4 299.2 372.7 297.1C373.4 296.4 374.9 296.5 376.1 296.4L376.2 296.3Z" fill="#67B93F"/>
<path d="M312.7 515.4C314.9 512.7 318.1 510.8 317.7 506.7C317.7 505.8 318.6 504.7 319.3 503.9C324.4 498.4 334.8 500.5 337.4 507.5C338 509.2 338.9 510.7 339.5 512.4C341.8 518.9 340.5 524.8 335.8 529.7C331 534.6 329.5 540.6 328.2 547C327.3 551.8 324.8 555.9 319.9 557.8C314.9 559.7 309.9 561.7 304.8 563.1C298.4 564.9 292.5 563.8 287.3 559.3C282.4 555.1 278.9 550.1 277.7 543.7C276.5 537.9 278.8 535.1 284.9 531.5C293 526.9 301.1 522.5 309.2 517.9C310.4 517.2 311.4 516.2 312.6 515.2L312.7 515.4Z" fill="#67B93F"/>
<path d="M72.7 427.5C64.7 421.9 63 416.5 66.2 406.1C68.4 398.8 70.6 391.6 73.2 384.4C73.9 382.4 75.8 380.8 77.3 379.1C77.6 378.7 78.4 378.7 79 378.7C91.3 380 101.1 385.4 107.8 396.1C111.7 402.4 115.3 408.9 117.4 416.1C118.5 419.8 116.9 425.2 113.8 427.3C108.3 431.1 102 432.8 95.5 433.7C87 434.9 79.7 432.1 72.7 427.4V427.5Z" fill="#67B93F"/>
<path d="M448 50.4999C450.2 53.9999 451.2 57.3999 449.2 61.2999C447.9 63.6999 445.8 64.4999 443.5 64.3999C440.1 64.2999 436.5 64.0999 433.2 63.1999C430.2 62.3999 428.3 63.1999 426.9 65.3999C424.7 68.7999 421.7 69.9999 417.8 69.8999C413 69.6999 408.1 70.0999 403.3 69.6999C400.8 69.4999 398.9 67.8999 398 65.1999C395.4 57.8999 396.5 50.6999 398.4 43.5999C399.6 39.1999 401 34.8999 402.5 30.5999C403.5 27.5999 405.9 26.6999 408.8 27.9999C414.6 30.5999 420.6 32.8999 426.3 35.6999C432.3 38.5999 438.2 41.7999 443.9 45.2999C445.6 46.2999 446.6 48.6999 448 50.5999V50.4999Z" fill="#67B93F"/>
<path d="M510.9 462.7C515.3 461.4 519.4 460.2 523.5 458.8C524.1 458.6 524.7 457.7 525 457C526 454.3 528.4 452.5 530.6 452.5C535.2 452.5 536.2 456.5 535.6 460.2C534.4 468.1 531.6 475.6 527.4 482.4C522.4 490.4 512.2 493.8 503.8 493.2C500.1 492.9 497.4 489.9 497.6 486.1C497.8 480.7 498.3 475.3 499 469.9C499.5 466 503.4 463.2 507.8 462.9C508.8 462.9 509.8 462.8 511 462.6L510.9 462.7Z" fill="#67B93F"/>
<path d="M217.6 253C214.9 254.9 212.5 256.9 209.8 258.2C205.3 260.4 201.5 258.7 199.9 253.9C196.6 243.9 196.4 233.6 197.1 223.3C197.3 220.5 198.3 218.6 202.2 218.7C207.8 218.8 213.4 218.5 218.8 220.7C222.4 222.2 224.4 225 225.5 228.6C228.4 238.4 227 246.8 217.7 253H217.6Z" fill="#68B93F"/>
<path d="M433.7 240.8C429.2 247.1 423.3 250.6 415.8 251.2C409.7 251.7 402.6 247.1 401.5 241.1C401.2 239.2 402.3 236.4 403.7 235C406.7 232.1 410.2 229.5 413.8 227.3C418.2 224.6 421 220.8 423.6 216.5C424.9 214.4 427.1 212.6 429.3 211.6C433 209.9 436.1 211.8 437.1 216C439 224.6 438 232.8 433.7 240.8Z" fill="#67B93F"/>
<path d="M572.8 269.9C573.7 273.7 571.7 277.9 568.1 278.8C563.5 280 558.7 281.2 554 279.5C551.6 278.6 549.1 277.1 547.5 275.2C543.9 271 542.2 265.7 541.3 260.3C540.8 257.5 543.6 254.7 547.1 254.4C556.9 253.7 564.9 257 570.6 265.2C571.5 266.5 572 268.2 572.8 269.9Z" fill="#67B93F"/>
<path d="M342.8 438.4C344.5 439.1 346 439.8 347.3 440.7C348.6 441.5 349.6 443.1 351 443.4C354.6 444.4 356.7 446.5 356.8 450.3C356.8 453.6 357 456.9 356.6 460.1C356 464 354 465.6 350.1 465.3C346.6 465.1 343.1 464.5 339.7 463.6C336.7 462.8 334.5 459.2 335.1 456.3C336.2 451.5 337.5 446.8 339.1 442.2C339.6 440.7 341.4 439.7 342.8 438.5V438.4Z" fill="#69BA40"/>
<path d="M173.3 129.2C169.9 132.2 163.6 131.7 160.5 128.5C154 121.7 157.1 114.9 163.6 110.8C165.5 109.6 167.7 107.3 170.5 109.5C170.9 109.8 172.1 109.4 172.7 108.9C175.5 106.8 177.9 108.1 179.9 109.9C181.9 111.8 181.6 114.4 180.6 116.8C179.4 119.6 178.4 122.5 176.9 125.1C176.1 126.6 174.6 127.6 173.2 129.1L173.3 129.2Z" fill="#68B93F"/>
<path d="M51.7 146C50.2 148.3 48.9 150.4 47.5 152.4C47.9 149.8 48.5 147.4 49.1 144.9C49.1 144.9 49.1 144.9 49.3 145.1C50.3 144.7 51.2 144.2 52.1 143.7C52 144.4 51.9 145.1 51.6 145.9L51.7 146Z" fill="#BAFF98"/>
<path d="M52.5 159.6C52.7 159.3 53 159.1 53.3 158.9C53.3 159 53.5 159.3 53.5 159.3C53.2 159.5 52.9 159.6 52.5 159.6Z" fill="#91FF5C"/>
</svg>
